<svg width="645" height="298" viewBox="0 0 645 298" fill="none" xmlns="http://www.w3.org/2000/svg">
<path fill-rule="evenodd" clip-rule="evenodd" d="M10.9253 174.246L14.7437 177.907C15.0854 178.234 15.0854 178.766 14.7437 179.093L10.9253 182.754C10.5835 183.082 10.0295 183.082 9.68782 182.754C9.34611 182.427 9.34611 181.895 9.68782 181.568L12.0126 179.339H1.83893C1.3756 179.339 1 178.963 1 178.5C1 178.037 1.3756 177.661 1.83893 177.661H12.0126L9.68782 175.432C9.34611 175.105 9.34611 174.573 9.68782 174.246C10.0295 173.918 10.5835 173.918 10.9253 174.246Z" fill="black"/>
<path d="M1.0002 40.9817C0.930554 19.145 18.6912 1 41.014 1C63.2323 1 81.4108 19.2146 80.9929 41.8175C80.575 63.6194 62.6054 81.2071 40.5961 80.9982C18.6912 80.7892 0.930554 62.9228 1.0002 40.9817ZM77.5104 41.0513C77.6497 21.4784 61.8393 4.48272 40.9792 4.4479C20.7111 4.41307 4.69164 20.7122 4.41304 40.4941C4.16927 60.9028 20.5021 77.3761 40.6309 77.5503C61.3865 77.7244 77.5801 60.868 77.5104 41.0513Z" fill="white" fill-opacity="0.8"/>
<path d="M40.9792 47.9123C40.8747 48.1212 40.7702 48.2606 40.7006 48.3999C38.1584 53.6588 35.651 58.9177 33.6311 64.4204C33.5615 64.5945 33.3525 64.7687 33.1784 64.8035C32.4471 64.9776 32.0292 64.7338 31.7158 64.0373C28.9994 57.8729 26.2831 51.7433 23.4971 45.5789C21.0942 40.2851 18.6216 34.9914 16.1839 29.6976C15.9401 29.2101 15.6963 28.7225 15.4177 28.2697C14.6516 26.9463 13.5024 26.2846 12.0049 26.2149C11.6915 26.1801 11.3781 26.1801 11.0995 26.1453C10.7164 26.1104 10.5771 25.9015 10.6119 25.4139C10.6467 24.9611 10.8557 24.7173 11.2388 24.7522C12.388 24.787 13.5024 24.8915 14.6516 24.8915C17.5769 24.8567 20.537 24.8218 23.4623 24.7522C23.7409 24.7522 24.0891 24.7173 24.124 25.0656C24.1588 25.3791 24.0543 25.7273 23.9847 26.0408C23.9847 26.1104 23.8105 26.1104 23.7061 26.1453C23.0792 26.2149 22.4524 26.2846 21.7907 26.3891C21.5817 26.4239 21.3728 26.4935 21.1638 26.598C20.6763 26.807 20.5022 27.1204 20.6763 27.608C21.129 28.9314 21.5817 30.2897 22.1389 31.5783C24.9598 37.8472 27.8154 44.0813 30.671 50.3154C31.6461 52.4747 32.6909 54.5991 33.7008 56.7236C33.7704 56.8629 33.8401 57.0022 33.9446 57.2112C34.258 56.5494 34.5714 55.9226 34.85 55.3305C36.2778 52.3353 37.6708 49.3054 39.0987 46.3102C39.4817 45.544 39.4817 44.8127 39.1335 44.0465C37.636 40.7727 36.1734 37.4989 34.7107 34.26C33.9446 32.5535 33.1436 30.8818 32.3078 29.2101C32.0989 28.827 31.8899 28.4439 31.6461 28.0608C30.88 26.8766 29.7656 26.3194 28.4074 26.2497C28.1288 26.2497 27.885 26.2149 27.6064 26.1801C27.1885 26.1453 26.9448 25.8318 27.0144 25.3791C27.0492 24.9263 27.293 24.7522 27.7457 24.787C30.9845 24.8218 34.2232 24.8915 37.4619 24.9263C38.2977 24.9263 39.1335 24.8567 39.9693 24.787C40.3872 24.7522 40.5613 24.9263 40.5961 25.3791C40.6309 25.8666 40.4568 26.1453 40.0737 26.1801C39.3424 26.2497 38.6111 26.2846 37.8798 26.4239C36.9743 26.5632 36.6957 26.9811 36.9743 27.8518C37.2529 28.7225 37.6012 29.5583 37.9494 30.3594C39.2728 33.3893 40.6309 36.3845 41.9543 39.3796C41.9891 39.4841 42.0588 39.5886 42.1284 39.7627C42.1981 39.6931 42.2329 39.6582 42.2677 39.5886C43.9045 36.2103 45.4716 32.7624 46.7601 29.2101C46.9342 28.6877 47.0735 28.1652 47.1432 27.6428C47.2477 26.807 46.8646 26.3891 46.0288 26.3194C45.402 26.2497 44.7403 26.2149 44.1134 26.1453C43.7652 26.1104 43.5214 25.797 43.5562 25.3442C43.5911 24.9263 43.8 24.7522 44.2179 24.7522C46.9342 24.787 49.6854 24.8567 52.4018 24.8915C53.2376 24.8915 54.0733 24.8218 54.9091 24.7522C55.327 24.7173 55.4663 24.8567 55.5012 25.3094C55.536 25.8666 55.3967 26.1104 54.9788 26.1453C54.5957 26.1801 54.2126 26.2149 53.8644 26.2149C52.6455 26.2497 51.6704 26.807 50.9391 27.7821C50.4516 28.409 50.0337 29.1056 49.6506 29.8021C47.5959 33.5286 45.7502 37.3248 43.9741 41.1906C43.5214 42.131 43.6259 42.932 44.0438 43.8027C45.2975 46.5192 46.5163 49.2357 47.7352 51.9871C48.4317 53.5891 49.163 55.1564 49.8595 56.7584C49.9292 56.8977 49.9988 57.037 50.0685 57.2112C50.173 57.0022 50.2426 56.8977 50.2774 56.7584C53.7599 48.8875 56.9986 40.912 60.1329 32.9017C60.7249 31.4042 61.2473 29.8718 61.7348 28.3394C62.1179 27.1553 61.5955 26.4239 60.3418 26.2846C59.715 26.2149 59.0881 26.1801 58.4613 26.1104C58.0782 26.0756 57.8344 25.7622 57.8693 25.3094C57.8693 24.8915 58.113 24.6825 58.5309 24.7173C61.2124 24.7522 63.894 24.8218 66.5755 24.8567C67.4113 24.8567 68.2471 24.787 69.0829 24.7173C69.5356 24.6825 69.7445 24.8567 69.8142 25.2746C69.8838 25.7273 69.6401 26.0756 69.257 26.1104C68.8043 26.1801 68.3515 26.2149 67.8988 26.2846C66.7844 26.4587 65.9138 27.0856 65.3914 28.0259C64.6253 29.3494 63.894 30.7076 63.3019 32.1007C59.8543 40.0762 56.4414 48.0864 53.0634 56.0967C51.9142 58.8132 50.8695 61.5646 49.8247 64.3159C49.6506 64.7338 49.3372 64.7687 48.9889 64.7687C48.6407 64.7338 48.2576 64.8035 48.0835 64.3507C46.2377 59.3356 43.9741 54.4598 41.7802 49.584C41.5016 49.0964 41.2578 48.5392 40.9792 47.9123Z" fill="white" fill-opacity="0.8"/>
<path d="M38.82 12.5278C39.1682 12.5627 39.5165 12.5975 39.8299 12.6323C40.1085 13.4333 40.3523 13.6075 41.1881 13.6423C41.7105 13.6771 42.2328 13.6771 42.7552 13.712C44.3223 13.8861 45.1581 14.7568 45.0885 16.324C45.0188 17.5081 44.8099 18.6923 44.6009 19.8764C44.3571 21.0605 44.0437 22.2098 43.7651 23.3591C43.6955 23.6029 43.591 23.7422 43.3472 23.777C42.6507 23.8815 41.9891 23.986 41.2229 24.1253C41.397 23.777 41.5363 23.4636 41.6408 23.1501C42.1284 21.8267 42.6856 20.5033 43.0686 19.145C43.4517 17.7519 42.79 17.0205 41.3274 16.9509C40.7005 16.9161 40.0389 16.9161 39.412 16.8812C38.6807 16.8116 38.4717 16.533 38.4717 15.8364C38.4717 15.6971 38.4717 15.5578 38.5066 15.4185C38.5762 14.4433 38.6807 13.503 38.82 12.5278Z" fill="white" fill-opacity="0.8"/>
<path d="M49.7899 37.2552C49.7899 37.6731 49.7899 38.0214 49.7899 38.4045C50.1033 38.2651 50.3122 38.1258 50.556 38.0214C51.2177 37.7079 51.8794 37.4989 52.6107 37.6034C53.934 37.8124 54.8743 38.892 54.9788 40.2503C55.1529 43.0713 53.0982 44.9868 50.2774 44.6037C49.9292 44.5689 49.755 44.6385 49.755 44.9868C49.755 45.8923 49.755 46.763 49.7899 47.6685C49.7899 48.0168 49.9988 48.2257 50.3471 48.2606C50.5212 48.2954 50.6953 48.2954 50.8346 48.3302C50.9391 48.365 51.0087 48.4695 51.0784 48.5392C50.9739 48.6088 50.8694 48.7133 50.765 48.7133C49.9988 48.7133 49.2327 48.7133 48.4665 48.7133C48.2228 48.7133 47.979 48.7481 47.7004 48.7133C47.5959 48.7133 47.5263 48.6088 47.4566 48.5392C47.5263 48.4695 47.5959 48.365 47.6656 48.3302C48.4665 48.0864 48.5014 48.0864 48.5014 47.2157C48.5014 44.6385 48.5014 42.0265 48.5014 39.4493C48.5014 39.0662 48.4317 38.7527 48.0835 38.5089C48.0138 38.4741 47.979 38.1258 48.0486 38.091C48.6407 37.8472 49.163 37.6034 49.7899 37.2552ZM49.7899 41.1906C49.7899 41.7827 49.755 42.3748 49.7899 42.932C49.8247 43.1758 49.9292 43.4892 50.1381 43.6634C50.8346 44.3599 52.0883 44.3251 52.7848 43.6634C53.7251 42.723 53.9689 40.7031 53.2375 39.4841C52.6107 38.4741 51.4615 38.091 50.3819 38.6134C49.9988 38.7876 49.7899 39.0662 49.7899 39.4841C49.7899 40.0413 49.7899 40.5986 49.7899 41.1906Z" fill="white" fill-opacity="0.8"/>
<path d="M33.6311 41.4344C33.6311 41.6434 33.6311 41.7827 33.6311 41.8872C33.5963 43.8375 33.5963 45.7878 33.5963 47.7381C33.5963 48.3999 33.7356 48.5392 34.3973 48.6785C34.5018 48.7133 34.6062 48.8526 34.7107 48.9571C34.6062 49.0268 34.4669 49.1312 34.3625 49.1312C33.4222 49.1312 32.4471 49.1312 31.5068 49.1312C31.4023 49.1312 31.263 49.0268 31.1586 48.9571C31.263 48.8526 31.3327 48.7133 31.472 48.7133C32.1685 48.574 32.3078 48.4695 32.3078 47.773C32.3078 46.4495 32.3078 45.0913 32.3078 43.7678C32.3078 43.3499 32.1685 43.0365 31.8202 42.8275C31.5068 42.6185 31.5416 42.4792 31.8899 42.3051C32.4123 41.9917 33.0043 41.713 33.6311 41.4344Z" fill="white" fill-opacity="0.8"/>
<path d="M31.4023 13.7119C31.8202 13.9209 32.1336 14.1299 32.4471 14.2344C32.5864 14.304 32.8301 14.304 32.9694 14.2344C33.3177 14.095 33.5963 13.9209 34.0142 13.7119C33.9445 14.095 33.9097 14.4085 33.8401 14.7219C33.7704 15.0354 33.8052 15.2792 34.0838 15.4881C34.3276 15.6971 34.5366 15.9409 34.7803 16.2195C34.5017 16.2543 34.2231 16.3588 33.9445 16.3588C33.5266 16.3588 33.248 16.533 33.1087 16.9509C33.0043 17.2295 32.865 17.4733 32.6908 17.7867C32.5167 17.4385 32.3426 17.125 32.2033 16.8116C32.0988 16.4981 31.855 16.3936 31.5765 16.3936C31.263 16.3588 30.9496 16.2892 30.6362 16.2543C30.6014 16.2195 30.6014 16.1847 30.5665 16.1499C30.8103 15.9409 31.0541 15.6971 31.2979 15.4881C31.5764 15.2792 31.6113 15.0354 31.5416 14.7219C31.5068 14.4085 31.472 14.095 31.4023 13.7119Z" fill="white" fill-opacity="0.8"/>
<path d="M39.412 10.9606C39.621 10.4382 39.9344 10.0203 39.9344 9.5675C39.8996 9.14958 39.5165 8.76648 39.2379 8.31372C39.621 8.34855 39.9344 8.38338 40.2478 8.41821C40.5613 8.48786 40.805 8.41821 41.014 8.13959C41.1881 7.86097 41.4319 7.65201 41.7105 7.33856C41.815 7.75649 41.8498 8.13959 41.9891 8.48786C42.0587 8.662 42.198 8.83613 42.3373 8.90579C42.6508 9.07992 42.999 9.18441 43.4169 9.35854C43.0338 9.60233 42.6856 9.74164 42.3722 9.98543C42.2329 10.0899 42.1284 10.264 42.0936 10.4382C42.0239 10.7865 42.0239 11.1696 41.9891 11.5875C41.6757 11.3089 41.3971 11.0999 41.1533 10.8213C40.9792 10.6123 40.7702 10.5775 40.5264 10.6471C40.1434 10.7865 39.7951 10.8561 39.412 10.9606Z" fill="white" fill-opacity="0.8"/>
<path d="M47.6307 16.115C47.9093 15.8712 48.1879 15.6623 48.4665 15.3836C48.571 15.2792 48.6407 15.0354 48.6058 14.8961C48.571 14.513 48.5014 14.1647 48.4317 13.7468C48.7451 13.9209 49.0586 14.0254 49.3023 14.1995C49.6158 14.4085 49.8595 14.4085 50.173 14.1995C50.4167 14.0254 50.7302 13.9209 51.0436 13.7468C50.9739 14.1647 50.9043 14.513 50.8695 14.8961C50.8695 15.0702 50.9391 15.2792 51.0436 15.4185C51.2873 15.6971 51.566 15.9061 51.8794 16.2195C51.4963 16.2892 51.1829 16.3588 50.9043 16.3588C50.5212 16.3588 50.3123 16.5329 50.2078 16.8812C50.1033 17.1598 49.9292 17.4385 49.7551 17.7867C49.5809 17.4036 49.4068 17.125 49.2675 16.8116C49.163 16.5329 48.9889 16.4285 48.7103 16.3936C48.3969 16.3588 48.0486 16.2892 47.7352 16.2543C47.6656 16.1847 47.6307 16.1498 47.6307 16.115Z" fill="white" fill-opacity="0.8"/>
<path d="M32.8301 39.6234C32.2381 39.6234 31.9247 39.31 31.9247 38.7179C31.9247 38.1607 32.3078 37.7776 32.865 37.7776C33.3873 37.7776 33.7704 38.1607 33.7704 38.7179C33.7356 39.2751 33.4222 39.6234 32.8301 39.6234Z" fill="white" fill-opacity="0.8"/>
<path d="M107.105 19.4926C107.022 19.6591 106.94 19.7702 106.884 19.8812C104.867 24.0732 102.877 28.2652 101.274 32.6515C101.218 32.7903 101.052 32.9291 100.914 32.9569C100.334 33.0957 100.002 32.9013 99.7534 32.3461C97.5975 27.4323 95.4417 22.5463 93.2306 17.6326C91.3235 13.4128 89.3611 9.19308 87.4263 4.97334C87.2329 4.58468 87.0394 4.19602 86.8183 3.83512C86.2102 2.78019 85.2981 2.25272 84.1097 2.1972C83.8609 2.16944 83.6122 2.16943 83.391 2.14167C83.087 2.11391 82.9765 1.94734 83.0041 1.55868C83.0317 1.19778 83.1976 1.00345 83.5016 1.03122C84.4137 1.05898 85.2981 1.14226 86.2102 1.14226C88.5319 1.1145 90.8812 1.08674 93.2029 1.03122C93.424 1.03122 93.7004 1.00345 93.7281 1.28107C93.7557 1.53092 93.6728 1.80854 93.6175 2.05839C93.6175 2.11391 93.4793 2.11391 93.3964 2.14167C92.8989 2.1972 92.4014 2.25272 91.8762 2.336C91.7104 2.36377 91.5446 2.41929 91.3787 2.50257C90.9918 2.66914 90.8536 2.91899 90.9918 3.30765C91.3511 4.36259 91.7104 5.44529 92.1526 6.47246C94.3914 11.4695 96.6578 16.4388 98.9242 21.4081C99.6981 23.1293 100.527 24.8228 101.329 26.5162C101.384 26.6273 101.439 26.7383 101.522 26.9049C101.771 26.3774 102.02 25.8777 102.241 25.4058C103.374 23.0183 104.48 20.603 105.613 18.2155C105.917 17.6048 105.917 17.0218 105.641 16.4111C104.452 13.8015 103.291 11.1919 102.13 8.61009C101.522 7.24978 100.887 5.91723 100.223 4.58468C100.057 4.2793 99.8916 3.97393 99.6981 3.66855C99.0901 2.72466 98.2056 2.28048 97.1277 2.22496C96.9066 2.22496 96.7131 2.1972 96.492 2.16944C96.1603 2.14167 95.9668 1.89182 96.0221 1.53092C96.0498 1.17002 96.2432 1.03122 96.6025 1.05898C99.173 1.08674 101.743 1.14226 104.314 1.17002C104.977 1.17002 105.641 1.1145 106.304 1.05898C106.636 1.03122 106.774 1.17002 106.801 1.53092C106.829 1.91958 106.691 2.14167 106.387 2.16944C105.806 2.22496 105.226 2.25272 104.646 2.36377C103.927 2.47481 103.706 2.80795 103.927 3.50198C104.148 4.19602 104.424 4.8623 104.701 5.50081C105.751 7.91605 106.829 10.3035 107.879 12.691C107.907 12.7743 107.962 12.8576 108.017 12.9964C108.073 12.9409 108.1 12.9131 108.128 12.8576C109.427 10.1647 110.671 7.41635 111.693 4.58468C111.832 4.16826 111.942 3.75184 111.998 3.33542C112.08 2.66914 111.776 2.336 111.113 2.28048C110.616 2.22496 110.09 2.1972 109.593 2.14167C109.317 2.11391 109.123 1.86406 109.151 1.50316C109.178 1.17002 109.344 1.03122 109.676 1.03122C111.832 1.05898 114.015 1.1145 116.171 1.14226C116.834 1.14226 117.498 1.08674 118.161 1.03122C118.493 1.00345 118.603 1.1145 118.631 1.4754C118.659 1.91958 118.548 2.11391 118.216 2.14167C117.912 2.16943 117.608 2.1972 117.332 2.1972C116.365 2.22496 115.591 2.66914 115.01 3.44646C114.623 3.94617 114.292 4.50139 113.988 5.05662C112.357 8.0271 110.892 11.0531 109.482 14.1346C109.123 14.8842 109.206 15.5227 109.538 16.2167C110.533 18.3821 111.5 20.5475 112.467 22.7407C113.02 24.0177 113.601 25.267 114.153 26.544C114.209 26.655 114.264 26.7661 114.319 26.9049C114.402 26.7383 114.457 26.655 114.485 26.544C117.249 20.2699 119.819 13.9125 122.307 7.52739C122.777 6.33365 123.191 5.11215 123.578 3.89064C123.882 2.94676 123.468 2.36376 122.473 2.25272C121.975 2.1972 121.478 2.16943 120.98 2.11391C120.676 2.08615 120.483 1.8363 120.51 1.4754C120.51 1.14226 120.704 0.975693 121.036 1.00345C123.164 1.03122 125.292 1.08674 127.42 1.1145C128.083 1.1145 128.747 1.05898 129.41 1.00345C129.769 0.975693 129.935 1.1145 129.991 1.44764C130.046 1.80854 129.852 2.08615 129.548 2.11391C129.189 2.16943 128.83 2.1972 128.47 2.25272C127.586 2.39153 126.895 2.89123 126.48 3.64079C125.872 4.69573 125.292 5.77842 124.822 6.88888C122.086 13.2463 119.377 19.6314 116.696 26.0165C115.784 28.1819 114.955 30.3751 114.126 32.5682C113.988 32.9013 113.739 32.9291 113.462 32.9291C113.186 32.9014 112.882 32.9569 112.744 32.596C111.279 28.5983 109.482 24.7117 107.741 20.8251C107.52 20.4365 107.327 19.9923 107.105 19.4926Z" fill="white" fill-opacity="0.8"/>
<path d="M114.098 10.9976C114.098 11.3307 114.098 11.6083 114.098 11.9137C114.347 11.8026 114.513 11.6916 114.706 11.6083C115.231 11.3585 115.756 11.1919 116.337 11.2752C117.387 11.4417 118.133 12.3023 118.216 13.385C118.354 15.6337 116.724 17.1606 114.485 16.8552C114.208 16.8275 114.07 16.883 114.07 17.1606C114.07 17.8824 114.07 18.5764 114.098 19.2982C114.098 19.5758 114.264 19.7424 114.54 19.7702C114.678 19.7979 114.817 19.7979 114.927 19.8257C115.01 19.8535 115.065 19.9367 115.121 19.9923C115.038 20.0478 114.955 20.1311 114.872 20.1311C114.264 20.1311 113.656 20.1311 113.048 20.1311C112.854 20.1311 112.661 20.1588 112.44 20.1311C112.357 20.1311 112.301 20.0478 112.246 19.9923C112.301 19.9367 112.357 19.8535 112.412 19.8257C113.048 19.6314 113.075 19.6314 113.075 18.9373C113.075 16.883 113.075 14.8009 113.075 12.7465C113.075 12.4412 113.02 12.1913 112.744 11.997C112.688 11.9692 112.661 11.6916 112.716 11.6638C113.186 11.4695 113.6 11.2752 114.098 10.9976ZM114.098 14.1346C114.098 14.6065 114.07 15.0785 114.098 15.5227C114.126 15.717 114.208 15.9669 114.374 16.1057C114.927 16.6609 115.922 16.6331 116.475 16.1057C117.221 15.3561 117.415 13.7459 116.834 12.7743C116.337 11.9692 115.425 11.6638 114.568 12.0803C114.264 12.2191 114.098 12.4412 114.098 12.7743C114.098 13.2185 114.098 13.6627 114.098 14.1346Z" fill="white" fill-opacity="0.8"/>
<path d="M101.273 14.329C101.273 14.4955 101.273 14.6066 101.273 14.6899C101.245 16.2445 101.245 17.7992 101.245 19.3538C101.245 19.8813 101.356 19.9923 101.881 20.1034C101.964 20.1311 102.047 20.2422 102.13 20.3254C102.047 20.381 101.936 20.4643 101.853 20.4643C101.107 20.4643 100.333 20.4643 99.5869 20.4643C99.504 20.4643 99.3935 20.381 99.3105 20.3254C99.3935 20.2422 99.4487 20.1311 99.5593 20.1311C100.112 20.0201 100.223 19.9368 100.223 19.3816C100.223 18.3266 100.223 17.2439 100.223 16.189C100.223 15.8559 100.112 15.606 99.8357 15.4394C99.5869 15.2729 99.6146 15.1618 99.891 15.023C100.306 14.7732 100.775 14.5511 101.273 14.329Z" fill="white" fill-opacity="0.8"/>
<path d="M100.637 12.8854C100.167 12.8854 99.918 12.6355 99.918 12.1636C99.918 11.7194 100.222 11.414 100.664 11.414C101.079 11.414 101.383 11.7194 101.383 12.1636C101.355 12.6077 101.106 12.8854 100.637 12.8854Z" fill="white" fill-opacity="0.8"/>
<path fill-rule="evenodd" clip-rule="evenodd" d="M148.81 94V150.163H92L148.81 94ZM99.3018 147.163H145.81V143.771C145.572 143.931 145.285 144.025 144.976 144.025H143.486C142.658 144.025 141.986 143.353 141.986 142.525C141.986 141.696 142.658 141.025 143.486 141.025H144.976C145.285 141.025 145.572 141.118 145.81 141.278V139.548C145.572 139.708 145.285 139.801 144.976 139.801H142.244C141.416 139.801 140.744 139.13 140.744 138.301C140.744 137.473 141.416 136.801 142.244 136.801H144.976C145.285 136.801 145.572 136.895 145.81 137.055V135.276C145.572 135.436 145.285 135.529 144.976 135.529H143.486C142.658 135.529 141.986 134.858 141.986 134.029C141.986 133.201 142.658 132.529 143.486 132.529H144.976C145.285 132.529 145.572 132.622 145.81 132.782V131.053C145.572 131.213 145.285 131.306 144.976 131.306H142.244C141.416 131.306 140.744 130.634 140.744 129.806C140.744 128.978 141.416 128.306 142.244 128.306H144.976C145.285 128.306 145.572 128.399 145.81 128.559V126.78C145.572 126.94 145.285 127.034 144.976 127.034H143.486C142.658 127.034 141.986 126.362 141.986 125.534C141.986 124.705 142.658 124.034 143.486 124.034H144.976C145.285 124.034 145.572 124.127 145.81 124.287V122.557C145.572 122.717 145.285 122.811 144.976 122.811H142.244C141.416 122.811 140.744 122.139 140.744 121.311C140.744 120.482 141.416 119.811 142.244 119.811H144.976C145.285 119.811 145.572 119.904 145.81 120.064V118.285C145.572 118.445 145.285 118.538 144.976 118.538H143.486C142.658 118.538 141.986 117.867 141.986 117.038C141.986 116.21 142.658 115.538 143.486 115.538H144.976C145.285 115.538 145.572 115.632 145.81 115.792V114.062C145.572 114.222 145.285 114.315 144.976 114.315H142.244C141.416 114.315 140.744 113.644 140.744 112.815C140.744 111.987 141.416 111.315 142.244 111.315H144.976C145.285 111.315 145.572 111.408 145.81 111.568V109.79C145.572 109.95 145.285 110.043 144.976 110.043H143.486C142.658 110.043 141.986 109.372 141.986 108.543C141.986 107.715 142.658 107.043 143.486 107.043H144.976C145.285 107.043 145.572 107.136 145.81 107.296V101.184L99.3018 147.163ZM139.373 116.442V140.882H114.651L139.373 116.442ZM121.952 137.882H136.373V123.626L121.952 137.882ZM134.159 95.3961C134.561 95.7944 134.706 96.3857 134.531 96.9247L131.362 106.716C131.313 106.878 131.236 107.034 131.131 107.176C131.121 107.189 131.112 107.201 131.102 107.214C131.094 107.223 131.087 107.233 131.079 107.242L131.065 107.258C131.036 107.293 131.005 107.326 130.972 107.358L106.756 131.204L106.788 131.234L102.413 135.493C101.133 136.754 99.0536 136.752 97.7754 135.489L93.718 131.478C92.3102 130.156 92.4738 128.077 93.6138 126.864L93.6367 126.839L96.9287 123.634L96.933 123.63L122.248 98.7014C122.255 98.6945 122.262 98.6876 122.269 98.6807L122.288 98.6626C122.298 98.6526 122.309 98.6427 122.32 98.633C122.397 98.564 122.483 98.5025 122.575 98.45C122.636 98.4151 122.699 98.3848 122.763 98.3591C122.782 98.3515 122.801 98.3444 122.82 98.3376C122.829 98.3344 122.838 98.3313 122.847 98.3283L122.873 98.32L132.626 95.041C133.163 94.8604 133.756 94.9978 134.159 95.3961ZM124.853 105.119C125.564 105.79 126.366 106.365 127.237 106.825L104.615 129.102L100.125 124.697L122.767 102.401C123.2 103.206 123.733 103.948 124.35 104.611C123.775 104.259 123.013 104.329 122.512 104.824L118.837 108.458C118.247 109.041 118.242 109.99 118.824 110.58C119.407 111.169 120.357 111.174 120.946 110.592L124.621 106.958C125.124 106.461 125.202 105.698 124.853 105.119ZM128.977 104.342L130.76 98.8334L125.258 100.683C126.031 102.284 127.351 103.579 128.977 104.342ZM97.9775 126.8L102.475 131.246L100.317 133.347L100.309 133.355C100.258 133.405 100.185 133.438 100.097 133.438C100.008 133.438 99.935 133.405 99.8845 133.355L95.7929 129.31L95.774 129.293C95.7303 129.253 95.7104 129.208 95.7104 129.143C95.7104 129.071 95.7378 128.992 95.7875 128.932L97.9775 126.8Z" fill="#FFE195"/>
<path fill-rule="evenodd" clip-rule="evenodd" d="M217.576 93H178V145.62H182.389V150H222.014V97.3316H217.576V93ZM217.576 100.332V145.62H185.389V147H219.014V100.332H217.576ZM181 142.62V96H214.576V142.62H181ZM182.389 97.3316H197.971V112.749H182.389V97.3316ZM185.389 100.332V109.749H194.971V100.332H185.389ZM183.206 117.176H212.272V114.176H183.206V117.176ZM212.272 121.749H183.206V118.749H212.272V121.749ZM183.206 126.321H212.272V123.321H183.206V126.321ZM212.272 100.332H200.47V97.3316H212.272V100.332ZM200.47 104.904H212.272V101.904H200.47V104.904ZM212.272 130.845H183.206V127.845H212.272V130.845ZM212.272 138.048H202.226V141.048H212.272V138.048Z" fill="#FFE195"/>
<path fill-rule="evenodd" clip-rule="evenodd" d="M299.016 90.0435C299.016 90.0428 299.016 90.042 297.587 90.5001L299.016 90.042C298.794 89.352 298.111 88.9188 297.393 89.0128C287.688 90.2813 281.953 93.8983 278.693 96.9822C278.092 97.5516 278.065 98.5009 278.635 99.1027C279.204 99.7046 280.153 99.7309 280.755 99.1616C283.417 96.6434 288.208 93.496 296.492 92.1744C296.66 92.8499 296.866 93.7755 297.051 94.8785C297.458 97.2941 297.756 100.509 297.368 103.792C296.98 107.075 295.916 110.339 293.675 112.966C291.453 115.569 287.958 117.684 282.435 118.484C281.615 118.603 281.047 119.364 281.166 120.184C281.284 121.004 282.045 121.572 282.865 121.453C288.994 120.565 293.192 118.153 295.957 114.914C298.7 111.698 299.914 107.807 300.347 104.144C300.78 100.483 300.444 96.9632 300.01 94.3809C299.792 93.0845 299.547 92.0113 299.355 91.2578C299.259 90.8808 299.176 90.5831 299.116 90.3766C299.087 90.2734 299.062 90.1929 299.045 90.1366L299.025 90.0706L299.019 90.0516L299.017 90.0456L299.016 90.0435ZM262.057 92.6018C261.622 92.5292 261.177 92.6516 260.84 92.9366C260.615 93.1277 260.453 93.3788 260.371 93.6565L260.357 93.7004L260.333 93.7753C260.32 93.8176 260.304 93.8683 260.286 93.9269C260.226 94.1242 260.142 94.4082 260.045 94.7669C259.851 95.4834 259.605 96.5001 259.391 97.7219C258.967 100.152 258.66 103.459 259.192 106.854C259.726 110.261 261.117 113.828 264.145 116.641C267.172 119.453 271.676 121.366 278.158 121.771C278.349 121.787 278.547 121.767 278.741 121.705C278.752 121.702 278.763 121.698 278.773 121.695C278.807 121.683 278.839 121.671 278.872 121.657C279.106 121.558 279.314 121.399 279.474 121.193C279.494 121.167 279.513 121.14 279.532 121.112C279.535 121.108 279.538 121.104 279.541 121.1L279.55 121.086C279.559 121.072 279.571 121.053 279.587 121.029C279.618 120.981 279.661 120.913 279.714 120.827C279.821 120.654 279.97 120.406 280.145 120.092C280.496 119.464 280.957 118.567 281.408 117.475C281.884 116.323 282.36 114.929 282.677 113.386C282.705 113.324 282.73 113.26 282.75 113.194C283.933 109.327 286.169 106.634 288.124 104.898C289.102 104.031 290.002 103.41 290.651 103.009C290.974 102.809 291.234 102.665 291.407 102.573C291.431 102.56 291.454 102.549 291.475 102.538C291.492 102.529 291.508 102.52 291.524 102.513C291.545 102.502 291.563 102.493 291.579 102.485L291.599 102.475C291.619 102.465 291.633 102.458 291.64 102.455L291.643 102.454L291.017 101.09C291.643 102.454 291.643 102.453 291.644 102.453L291.645 102.453L291.646 102.452L291.646 102.452C292.397 102.105 292.725 101.216 292.38 100.465C292.035 99.7118 291.144 99.3816 290.391 99.7271L291.017 101.09C290.391 99.7271 290.391 99.7274 290.39 99.7276L290.389 99.7283L290.386 99.7297L290.377 99.7336L290.353 99.7452C290.333 99.7545 290.307 99.7673 290.274 99.7834C290.208 99.8157 290.117 99.8616 290.004 99.9217C289.777 100.042 289.459 100.219 289.074 100.457C288.304 100.932 287.26 101.654 286.133 102.654C285.012 103.649 283.801 104.926 282.697 106.515C282.123 103.995 280.8 101.463 278.319 99.2199C275.049 96.2639 269.88 93.9079 262.057 92.6018ZM278.477 116.704C278.53 116.582 278.583 116.457 278.636 116.33C279.439 114.384 280.171 111.821 280.042 109.17C279.915 106.568 278.96 103.844 276.307 101.445C273.774 99.1555 269.599 97.0761 262.876 95.7952C262.712 96.421 262.518 97.2559 262.347 98.2379C261.955 100.484 261.693 103.435 262.156 106.39C262.617 109.333 263.783 112.21 266.187 114.444C268.255 116.365 271.356 117.919 276.009 118.549C275.736 117.909 275.39 117.144 274.963 116.273C273.589 113.465 271.381 109.561 268.062 105.225C267.558 104.568 267.683 103.626 268.341 103.122C268.999 102.619 269.94 102.744 270.444 103.402C273.9 107.917 276.209 111.994 277.658 114.954C277.97 115.591 278.242 116.177 278.477 116.704Z" fill="#FFE195"/>
<path fill-rule="evenodd" clip-rule="evenodd" d="M261.553 125.204C261.248 125.204 261 125.458 261 125.75C261 126.037 261.239 126.287 261.537 126.296C261.554 126.296 261.57 126.296 261.587 126.296H271.152C271.981 126.296 272.652 126.968 272.652 127.796C272.652 128.625 271.981 129.296 271.152 129.296H263.422L268.507 152.219C268.611 152.64 268.95 152.9 269.355 152.9H290.144C290.549 152.9 290.889 152.64 290.993 152.219L296.077 129.296H291.376C290.548 129.296 289.876 128.625 289.876 127.796C289.876 126.968 290.548 126.296 291.376 126.296H297.915C297.931 126.296 297.947 126.296 297.963 126.296C298.261 126.287 298.5 126.037 298.5 125.75C298.5 125.458 298.252 125.204 297.947 125.204H261.553ZM258 125.75C258 127.266 258.959 128.56 260.299 129.068L265.581 152.883L265.587 152.907C265.998 154.63 267.505 155.9 269.355 155.9H290.144C291.995 155.9 293.502 154.63 293.913 152.907L293.919 152.883L299.201 129.068C300.541 128.561 301.5 127.266 301.5 125.75C301.5 123.791 299.9 122.204 297.947 122.204H261.553C259.6 122.204 258 123.791 258 125.75Z" fill="#FFE195"/>
<path fill-rule="evenodd" clip-rule="evenodd" d="M262.553 125.204C262.248 125.204 262 125.458 262 125.75C262 126.037 262.239 126.288 262.537 126.296C262.546 126.296 262.555 126.296 262.564 126.296C262.571 126.296 262.579 126.296 262.586 126.296H272.152C272.981 126.296 273.652 126.968 273.652 127.796C273.652 128.625 272.981 129.296 272.152 129.296H264.422L269.507 152.219C269.611 152.64 269.95 152.9 270.355 152.9H291.144C291.549 152.9 291.889 152.64 291.993 152.219L297.077 129.296H292.376C291.548 129.296 290.876 128.625 290.876 127.796C290.876 126.968 291.548 126.296 292.376 126.296H298.917C298.932 126.296 298.947 126.296 298.963 126.296C299.261 126.288 299.5 126.037 299.5 125.75C299.5 125.458 299.252 125.204 298.947 125.204H262.553ZM259 125.75C259 127.266 259.959 128.561 261.299 129.068L266.581 152.883L266.587 152.907C266.998 154.63 268.505 155.9 270.355 155.9H291.144C292.995 155.9 294.502 154.63 294.913 152.907L294.919 152.883L300.201 129.068C301.541 128.561 302.5 127.267 302.5 125.75C302.5 123.791 300.9 122.204 298.947 122.204H262.553C260.6 122.204 259 123.791 259 125.75Z" fill="#FFE195"/>
<path fill-rule="evenodd" clip-rule="evenodd" d="M360.241 94C348.983 94 339.867 103.086 339.867 114.282C339.867 125.477 348.983 134.563 360.241 134.563C371.499 134.563 380.614 125.477 380.614 114.282C380.614 103.086 371.499 94 360.241 94ZM336.867 114.282C336.867 101.418 347.338 91 360.241 91C373.144 91 383.614 101.418 383.614 114.282C383.614 124.33 377.225 132.886 368.278 136.15L375.59 146.304L377.042 137.628L385.598 139.055L379.014 130.18C378.52 129.515 378.66 128.575 379.325 128.082C379.99 127.588 380.93 127.727 381.423 128.393L392.435 143.236L379.506 141.08L377.361 153.896L365.218 137.034C363.614 137.381 361.949 137.563 360.241 137.563C358.518 137.563 356.838 137.377 355.221 137.025L343.059 153.915L340.969 141.08L328 143.233L339.01 128.393C339.503 127.727 340.443 127.588 341.108 128.082C341.774 128.575 341.913 129.515 341.419 130.18L334.833 139.058L343.446 137.628L344.856 146.285L352.165 136.136C343.238 132.862 336.867 124.316 336.867 114.282ZM360.264 102.356L363.633 109.224L363.637 109.233C363.851 109.683 364.288 110.009 364.827 110.086L364.833 110.087L372.468 111.207L366.931 116.561C366.53 116.965 366.389 117.479 366.475 117.907L366.48 117.929L367.767 125.543L360.938 121.942L360.924 121.935C360.501 121.701 359.932 121.701 359.509 121.935L359.489 121.946L352.672 125.46L353.952 117.888L353.955 117.872C354.053 117.36 353.881 116.866 353.533 116.542L353.522 116.532L347.965 111.159L355.606 110.038C356.145 109.961 356.582 109.635 356.796 109.184L356.804 109.167L360.264 102.356ZM359.496 110.492C358.833 111.869 357.526 112.793 356.032 113.007L354.435 113.242L355.587 114.356C356.684 115.383 357.188 116.909 356.905 118.418L356.63 120.044L358.078 119.298C359.396 118.579 361.045 118.58 362.362 119.302L363.797 120.058L363.529 118.473C363.237 116.975 363.775 115.471 364.821 114.429L364.829 114.421L365.998 113.29L364.404 113.056L364.401 113.056C362.903 112.841 361.593 111.913 360.932 110.53L360.217 109.073L359.496 110.492ZM360.241 95.7918C349.988 95.7918 341.68 104.057 341.68 114.281C341.68 115.11 342.351 115.781 343.18 115.781C344.008 115.781 344.68 115.11 344.68 114.281C344.68 105.726 351.633 98.7918 360.241 98.7918C368.848 98.7918 375.802 105.726 375.802 114.281C375.802 115.11 376.474 115.781 377.302 115.781C378.131 115.781 378.802 115.11 378.802 114.281C378.802 104.057 370.493 95.7918 360.241 95.7918Z" fill="#FFE195"/>
<path fill-rule="evenodd" clip-rule="evenodd" d="M458.432 100.75C459.175 101.117 459.479 102.017 459.113 102.759L457.768 102.095C459.113 102.759 459.112 102.761 459.112 102.761L459.111 102.764L459.108 102.769L459.102 102.781L459.085 102.814C459.071 102.84 459.053 102.873 459.031 102.913C458.986 102.993 458.924 103.101 458.842 103.231C458.677 103.493 458.433 103.848 458.095 104.265C457.419 105.099 456.367 106.18 454.824 107.248C451.723 109.397 446.727 111.436 439 111.436C438.172 111.436 437.5 110.764 437.5 109.936C437.5 109.107 438.172 108.436 439 108.436C446.169 108.436 450.558 106.554 453.116 104.782C454.403 103.891 455.25 103.011 455.765 102.376C456.022 102.058 456.197 101.801 456.303 101.633C456.356 101.549 456.391 101.488 456.41 101.453C456.42 101.436 456.426 101.425 456.428 101.421L456.425 101.428M458.432 100.75C457.692 100.385 456.798 100.686 456.428 101.421L458.432 100.75Z" fill="#FFE195"/>
<path fill-rule="evenodd" clip-rule="evenodd" d="M420.836 100.75C420.093 101.117 419.789 102.017 420.155 102.759L421.5 102.095C420.155 102.759 420.156 102.76 420.156 102.761L420.158 102.764L420.16 102.769L420.166 102.781L420.183 102.814C420.197 102.84 420.215 102.873 420.237 102.913C420.282 102.993 420.344 103.101 420.426 103.231C420.591 103.493 420.835 103.848 421.173 104.265C421.849 105.099 422.901 106.18 424.444 107.248C427.545 109.397 432.541 111.436 440.268 111.436C441.096 111.436 441.768 110.764 441.768 109.936C441.768 109.107 441.096 108.436 440.268 108.436C433.099 108.436 428.71 106.554 426.152 104.782C424.865 103.891 424.018 103.011 423.503 102.376C423.246 102.058 423.071 101.801 422.965 101.633C422.913 101.549 422.877 101.488 422.858 101.453C422.848 101.436 422.842 101.425 422.84 101.421L422.844 101.428M420.836 100.75C421.576 100.385 422.47 100.686 422.84 101.421L420.836 100.75ZM422.84 101.421C422.84 101.421 422.84 101.421 422.84 101.421C422.839 101.419 422.84 101.42 422.84 101.421Z" fill="#FFE195"/>
<path fill-rule="evenodd" clip-rule="evenodd" d="M411 121.5C411 105.775 423.775 93 439.5 93C455.206 93 467.964 105.792 468 121.483C468 121.489 468 121.494 468 121.5C468 121.5 468 121.501 468 121.501L468 121.525L468 121.549L468 121.564C467.966 137.249 455.221 149.982 439.532 150C439.511 150 439.489 150 439.467 150C423.759 149.982 411 137.265 411 121.5ZM433.481 146.286C422.777 143.699 414.7 134.364 414.043 123H423.568C423.892 133.137 427.478 139.788 431.147 143.949C431.935 144.842 432.724 145.618 433.481 146.286ZM445.523 146.282C456.222 143.685 464.297 134.327 464.956 123H455.432C455.108 133.137 451.522 139.788 447.853 143.949C447.066 144.841 446.279 145.615 445.523 146.282ZM464.954 120C464.262 108.482 455.905 98.9796 444.93 96.5835C445.732 97.2808 446.573 98.0989 447.413 99.0512C451.082 103.212 454.668 109.863 454.992 120H464.954ZM433.477 96.7176C422.778 99.315 414.703 108.673 414.044 120H423.568C423.892 109.863 427.478 103.212 431.147 99.0512C431.934 98.1592 432.721 97.385 433.477 96.7176ZM438 123V145.969C436.746 145.155 435.074 143.866 433.397 141.965C430.185 138.323 426.89 132.363 426.57 123H438ZM441 145.969C442.254 145.155 443.926 143.866 445.603 141.965C448.815 138.323 452.11 132.363 452.43 123H441V145.969ZM433.397 101.035C435.074 99.1342 436.746 97.8447 438 97.0307V120H426.57C426.89 110.637 430.185 104.677 433.397 101.035ZM445.163 101.035C443.675 99.3489 442.191 98.1438 441 97.3249V120H451.99C451.67 110.637 448.375 104.677 445.163 101.035Z" fill="#FFE195"/>
<path fill-rule="evenodd" clip-rule="evenodd" d="M422.072 141.579C421.702 142.314 420.808 142.615 420.068 142.25C419.325 141.883 419.021 140.983 419.387 140.241L420.732 140.905C419.387 140.241 419.388 140.24 419.388 140.239L419.389 140.236L419.392 140.231L419.398 140.219L419.415 140.186C419.429 140.16 419.447 140.127 419.469 140.087C419.514 140.007 419.576 139.899 419.658 139.769C419.823 139.507 420.067 139.152 420.405 138.735C421.081 137.901 422.133 136.82 423.676 135.752C426.777 133.603 431.773 131.564 439.5 131.564C440.328 131.564 441 132.236 441 133.064C441 133.893 440.328 134.564 439.5 134.564C432.331 134.564 427.942 136.446 425.384 138.218C424.097 139.109 423.25 139.989 422.735 140.624C422.478 140.942 422.303 141.199 422.197 141.367C422.144 141.451 422.109 141.512 422.09 141.547C422.08 141.564 422.074 141.575 422.072 141.579M422.072 141.579C422.072 141.579 422.072 141.579 422.072 141.579L422.072 141.579Z" fill="#FFE195"/>
<path fill-rule="evenodd" clip-rule="evenodd" d="M456.428 141.579C456.798 142.314 457.692 142.615 458.432 142.25C459.175 141.883 459.479 140.983 459.113 140.241L457.768 140.905C459.113 140.241 459.112 140.24 459.112 140.239L459.111 140.236L459.108 140.231L459.102 140.219L459.085 140.186C459.071 140.16 459.053 140.127 459.031 140.087C458.986 140.007 458.924 139.899 458.842 139.769C458.677 139.507 458.433 139.152 458.095 138.735C457.419 137.901 456.367 136.82 454.824 135.752C451.723 133.603 446.727 131.564 439 131.564C438.172 131.564 437.5 132.236 437.5 133.064C437.5 133.893 438.172 134.564 439 134.564C446.169 134.564 450.558 136.446 453.116 138.218C454.403 139.109 455.25 139.989 455.765 140.624C456.022 140.942 456.197 141.199 456.303 141.367C456.356 141.451 456.391 141.512 456.41 141.547C456.42 141.564 456.426 141.575 456.428 141.579M456.428 141.579C456.428 141.579 456.428 141.579 456.428 141.579L456.428 141.579Z" fill="#FFE195"/>
<path fill-rule="evenodd" clip-rule="evenodd" d="M520 84C520.828 84 521.5 84.6716 521.5 85.5V93.644C521.5 94.4724 520.828 95.144 520 95.144C519.172 95.144 518.5 94.4724 518.5 93.644V85.5C518.5 84.6716 519.172 84 520 84ZM502.496 117.805C502.496 108.293 510.206 100.56 519.705 100.56C529.186 100.56 536.927 108.282 536.642 117.829C536.636 122.74 534.546 126.565 532.617 129.604C532.276 130.14 531.95 130.638 531.641 131.11L531.641 131.11C531.041 132.026 530.505 132.845 530.053 133.654C529.377 134.864 529.059 135.776 529.059 136.536V137.622C529.059 139.533 527.578 141.023 525.663 141.023H513.475C511.56 141.023 510.08 139.533 510.08 137.622V136.536C510.08 135.776 509.761 134.864 509.085 133.654C508.633 132.845 508.097 132.026 507.497 131.11C507.188 130.638 506.862 130.14 506.522 129.604C504.59 126.561 502.496 122.728 502.496 117.805ZM519.705 103.56C511.87 103.56 505.496 109.943 505.496 117.805C505.496 121.841 507.195 125.066 509.054 127.996C509.338 128.443 509.635 128.896 509.931 129.349L509.931 129.349C510.567 130.322 511.201 131.291 511.704 132.191C512.45 133.526 513.08 134.99 513.08 136.536V137.622C513.08 137.781 513.134 137.871 513.183 137.92C513.232 137.969 513.32 138.023 513.475 138.023H525.663C525.818 138.023 525.907 137.969 525.955 137.92C526.004 137.871 526.059 137.781 526.059 137.622V136.536C526.059 134.99 526.689 133.526 527.434 132.191C527.937 131.291 528.571 130.322 529.208 129.349L529.208 129.347C529.504 128.895 529.8 128.443 530.084 127.996C531.944 125.066 533.642 121.841 533.642 117.805C533.642 117.79 533.642 117.774 533.643 117.758C533.887 109.942 527.549 103.56 519.705 103.56ZM544.375 116.576C543.547 116.576 542.875 117.248 542.875 118.076C542.875 118.905 543.547 119.576 544.375 119.576H552.5C553.328 119.576 554 118.905 554 118.076C554 117.248 553.328 116.576 552.5 116.576H544.375ZM486 118.076C486 117.248 486.672 116.576 487.5 116.576H495.625C496.453 116.576 497.125 117.248 497.125 118.076C497.125 118.905 496.453 119.576 495.625 119.576H487.5C486.672 119.576 486 118.905 486 118.076ZM538.395 134.39C537.81 133.804 536.86 133.803 536.274 134.388C535.688 134.973 535.686 135.923 536.272 136.509L541.959 142.21C542.544 142.796 543.494 142.797 544.08 142.212C544.667 141.627 544.668 140.677 544.083 140.091L538.395 134.39ZM495.92 93.9392C496.506 93.3541 497.456 93.3552 498.041 93.9417L503.729 99.6425C504.314 100.229 504.313 101.179 503.726 101.764C503.14 102.349 502.19 102.348 501.605 101.761L495.917 96.0605C495.332 95.4741 495.333 94.5243 495.92 93.9392ZM503.729 136.509C504.314 135.923 504.313 134.973 503.726 134.388C503.14 133.803 502.19 133.804 501.605 134.39L495.917 140.091C495.332 140.677 495.333 141.627 495.92 142.212C496.506 142.797 497.456 142.796 498.041 142.21L503.729 136.509ZM544.08 93.9392C544.667 94.5243 544.668 95.4741 544.083 96.0605L538.395 101.761C537.81 102.348 536.86 102.349 536.274 101.764C535.688 101.179 535.686 100.229 536.272 99.6425L541.959 93.9417C542.544 93.3552 543.494 93.3541 544.08 93.9392ZM512.489 144.167C510.367 144.167 508.898 145.904 508.898 147.913V152.725C508.898 153.8 509.199 154.81 509.85 155.579C510.516 156.366 511.462 156.792 512.489 156.792H513.489C514.876 158.653 516.9 160 519.36 160C521.762 160 523.807 158.708 525.025 156.792H525.932C527.012 156.792 528.038 156.435 528.785 155.632C529.519 154.844 529.822 153.799 529.822 152.725V147.913C529.822 145.904 528.353 144.167 526.231 144.167H512.489ZM511.898 147.913C511.898 147.624 511.996 147.435 512.093 147.331C512.186 147.232 512.312 147.167 512.489 147.167H526.231C526.408 147.167 526.534 147.232 526.627 147.331C526.724 147.435 526.822 147.624 526.822 147.913V152.725C526.822 153.256 526.677 153.494 526.589 153.588C526.515 153.668 526.346 153.792 525.932 153.792H524.14C523.556 153.792 523.026 154.13 522.78 154.659C522.097 156.125 520.794 157 519.36 157C517.94 157 516.569 156.133 515.556 154.501C515.282 154.06 514.8 153.792 514.281 153.792H512.489C512.321 153.792 512.221 153.737 512.14 153.641C512.044 153.528 511.898 153.255 511.898 152.725V147.913Z" fill="#FFE195"/>
<path fill-rule="evenodd" clip-rule="evenodd" d="M26.7364 171.322L26.7383 171.32L28.1525 172.735L18.7072 182.18C18.3167 182.57 17.6835 182.57 17.293 182.18C16.9025 181.789 16.9025 181.156 17.293 180.766L25.3222 172.736L17.293 164.707C16.9025 164.317 16.9025 163.683 17.293 163.293C17.6835 162.902 18.3167 162.902 18.7072 163.293L26.7364 171.322Z" fill="#FFE195"/>
<path fill-rule="evenodd" clip-rule="evenodd" d="M39 165L41 171.1H47L42.1429 175L43.9524 181L39 177.5L34.0476 181L35.8571 175L31 171.1H37.0952L39 165Z" fill="#FFE195"/>
<path d="M65.6225 166.071L64.173 165.132C63.7704 164.897 63.2067 164.976 62.9651 165.367L55.8786 175.54L52.6574 172.41C52.3353 172.018 51.7716 172.018 51.4495 172.331L50.2416 173.505C49.9195 173.818 49.9195 174.366 50.2416 174.679L55.2344 179.53C55.4759 179.765 55.9591 180 56.3617 180C56.7644 180 57.167 179.765 57.4086 179.374L65.8641 167.245C66.1057 166.854 66.0252 166.306 65.6225 166.071Z" fill="#FFE195"/>
<path fill-rule="evenodd" clip-rule="evenodd" d="M86.7105 165.687C87.0965 165.301 87.0965 164.676 86.7105 164.29C86.3245 163.904 85.6986 163.904 85.3126 164.29L78 171.602L70.6874 164.29C70.3014 163.903 69.6756 163.903 69.2896 164.29C68.9036 164.676 68.9036 165.301 69.2896 165.687L76.6022 173L69.2895 180.313C68.9035 180.699 68.9035 181.325 69.2895 181.711C69.6755 182.097 70.3014 182.097 70.6873 181.711L78 174.398L85.3127 181.711C85.6987 182.097 86.3245 182.097 86.7105 181.711C87.0965 181.325 87.0965 180.699 86.7105 180.313L79.3979 173L86.7105 165.687Z" fill="white"/>
<path d="M101 172.474V176.943C100.897 176.966 100.788 176.981 100.672 176.989C100.562 176.996 100.45 177 100.333 177C100.217 177 100.101 176.996 99.9846 176.989C99.8752 176.981 99.7658 176.966 99.6564 176.943V173.006C99.6564 172.591 99.5026 172.383 99.1949 172.383H99.0615C99.0205 172.217 99 172.044 99 171.863C99 171.697 99.0205 171.523 99.0615 171.342C99.2188 171.327 99.3624 171.316 99.4923 171.308C99.6291 171.293 99.7453 171.286 99.841 171.286H100.015C100.323 171.286 100.562 171.391 100.733 171.603C100.911 171.814 101 172.104 101 172.474ZM99.4513 169.147C99.6085 169.049 99.8342 169 100.128 169C100.299 169 100.436 169.015 100.538 169.045C100.648 169.075 100.726 169.113 100.774 169.158C100.822 169.196 100.853 169.272 100.867 169.385C100.88 169.498 100.887 169.615 100.887 169.736C100.867 170.12 100.822 170.331 100.754 170.369C100.692 170.407 100.48 170.445 100.118 170.482C99.735 170.467 99.5094 170.411 99.441 170.313C99.3795 170.215 99.3487 170.022 99.3487 169.736C99.3487 169.517 99.3829 169.321 99.4513 169.147Z" fill="#FFE195"/>
<rect x="93.5" y="166.5" width="13" height="13" rx="6.5" stroke="#FFE195"/>
<path d="M103 199.7C102.8 202.2 104.5 204.7 106.9 205.6C109.3 206.5 112.3 205.9 113.9 203.8C114.9 202.5 115.1 200.8 115 199.2C115 199.2 111.1 199.2 109.1 199.2C109.1 199.9 109.1 200.6 109.1 201.2C110.3 201.2 111.4 201.2 112.6 201.2C112.1 203.7 108.6 204.6 106.7 202.9C104.8 201.4 104.9 198.3 106.9 196.9C108.3 195.8 110.3 196.1 111.7 197C112.2 196.5 112.8 196 113.3 195.4C112.1 194.5 110.7 193.9 109.2 193.9C106 193.9 103.1 196.6 103 199.7ZM120 197H118C118 197.7 118 198.3 118 199C117.3 199 116.7 199 116 199V201C116.7 201 117.3 201 118 201C118 201.7 118 202.3 118 203H120C120 202.3 120 201.7 120 201C120.7 201 121.3 201 122 201V199C121.3 199 120.7 199 120 199C120 198.3 120 197.7 120 197ZM112 185C120.3 185 127 191.7 127 200C127 208.3 120.3 215 112 215C103.7 215 97 208.3 97 200C97 191.7 103.7 185 112 185Z" fill="white"/>
<path d="M80.1 198.5C80.1 197.4 79.7 192.6 79.7 192.4C79.6 192.2 79.5 192.1 79.3 192C78.6 191.8 76 192.6 75.5 193.1C75.3 193.3 75.3 193.5 75.3 193.6C75.4 193.8 78.6 198.9 78.6 198.9C79.1 199.7 79.5 199.6 79.6 199.5C79.7 199.6 80.1 199.5 80.1 198.5ZM82.8 200.8C85.5 200.1 85.6 200.1 85.7 200C85.9 199.9 85.9 199.7 85.9 199.5C85.8 198.8 84.7 197.1 84.1 196.8C83.9 196.7 83.7 196.7 83.5 196.8C83.4 196.9 83.3 197 81.9 199C81.9 199 81.3 199.9 81.2 199.9C81 200.1 81 200.4 81.2 200.7C81.4 201 81.7 201.1 81.9 201C82.1 201 82.4 200.9 82.8 200.8ZM84 206.8C84.6 206.6 85.9 204.9 86 204.2C86 204 86 203.8 85.8 203.7C85.7 203.6 85.6 203.6 83.3 202.8C83.3 202.8 82.3 202.5 82.3 202.4C82 202.3 81.8 202.4 81.6 202.6C81.4 202.8 81.4 203.2 81.5 203.4L81.9 204.1C83.3 206.4 83.4 206.6 83.5 206.7C83.6 206.8 83.8 206.8 84 206.8ZM80 207.6C80 207.5 80 207.4 80.1 204.9V203.8C80.1 203.5 79.9 203.3 79.7 203.2C79.4 203.1 79.1 203.2 78.9 203.4L78.4 204C76.6 206.1 76.5 206.2 76.5 206.3C76.5 206.4 76.5 206.5 76.5 206.5C76.5 206.6 76.6 206.7 76.6 206.8C77 207.3 79 208 79.6 207.9C79.8 207.9 79.9 207.8 80 207.6ZM74.3 199.7C74 200.1 73.9 201.4 74 202.3C74 202.6 74.1 202.8 74.2 203C74.3 203.2 74.5 203.3 74.7 203.3C74.8 203.3 74.9 203.3 77.3 202.5L78.4 202.2C78.7 202.1 78.8 201.9 78.9 201.6C78.9 201.3 78.8 201 78.5 200.9L77.8 200.6C75.3 199.5 75.1 199.5 75 199.5C74.6 199.4 74.4 199.5 74.3 199.7ZM80 185C88.3 185 95 191.7 95 200C95 208.3 88.3 215 80 215C71.7 215 65 208.3 65 200C65 191.7 71.7 185 80 185Z" fill="white"/>
<path d="M138.7 192C137.7 192 137 192.6 137 193.5C137 194.4 137.7 195 138.7 195C139.8 195 140.4 194.4 140.4 193.5C140.3 192.6 139.7 192 138.7 192ZM137.3 206H140V196.3H137.3V206ZM147.7 196C146.1 196 145 196.8 144.6 197.4L144.4 196.4H142V206.1H144.7V200.3C144.7 200 144.7 199.7 144.8 199.6C145 199.1 145.7 198.5 146.5 198.5C147.6 198.5 148.3 199.3 148.3 200.6V206.2H151V200.2C151 197.2 149.6 196 147.7 196ZM129 200C129 191.7 135.7 185 144 185C152.3 185 159 191.7 159 200C159 208.3 152.3 215 144 215C135.7 215 129 208.3 129 200Z" fill="white"/>
<path d="M54.1 197.3C54.7 196.9 55.2 196.4 55.6 195.8C55.1 196 54.5 196.2 53.9 196.3C54.5 195.9 55 195.4 55.2 194.7C54.6 195 54 195.3 53.3 195.4C52.8 194.8 52 194.5 51.1 194.5C49.5 194.5 48.1 195.8 48.1 197.5C48.1 197.7 48.1 198 48.2 198.2C45.7 198.1 43.6 196.9 42.1 195.1C41.8 195.5 41.7 196 41.7 196.6C41.7 197.6 42.2 198.5 43 199.1C42.5 199.1 42.1 199 41.7 198.7C41.7 200.1 42.7 201.3 44.1 201.6C43.9 201.7 43.6 201.7 43.3 201.7C43.1 201.7 42.9 201.7 42.7 201.6C43.1 202.8 44.2 203.6 45.5 203.7C44.5 204.5 43.2 205 41.8 205C41.6 205 41.3 205 41.1 205C42.4 205.8 44 206.3 45.6 206.3C51 206.3 54 201.8 54 197.9C54.1 197.5 54.1 197.4 54.1 197.3ZM48 185C56.3 185 63 191.7 63 200C63 208.3 56.3 215 48 215C39.7 215 33 208.3 33 200C33 191.7 39.7 185 48 185Z" fill="white"/>
<path d="M19.6 195.4V192.9H17.3C15.4 192.9 14.1 194.5 14.1 196.5V197.9H11.7V200.2H14.1V207.2H16.8V200.2H19.6V197.9H16.8V196.3C16.8 195.8 17.1 195.5 17.4 195.5H19.6V195.4ZM16 185C24.3 185 31 191.7 31 200C31 208.3 24.3 215 16 215C7.7 215 1 208.3 1 200C1 191.7 7.7 185 16 185Z" fill="white"/>
<path fill-rule="evenodd" clip-rule="evenodd" d="M174.7 202.2V197.4L179.3 199.8L174.7 202.2ZM184.8 196.6C184.8 196.6 184.6 195.4 184.1 194.9C183.5 194.2 182.7 194.2 182.4 194.2C180 194 176.5 194 176.5 194C176.5 194 172.9 194 170.6 194.2C170.3 194.2 169.5 194.2 168.9 194.9C168.4 195.4 168.2 196.6 168.2 196.6C168.2 196.6 168 198 168 199.3V200.6C168 202 168.2 203.4 168.2 203.4C168.2 203.4 168.4 204.6 168.9 205.1C169.5 205.8 170.4 205.8 170.8 205.8C172.2 205.9 176.6 206 176.6 206C176.6 206 180.2 206 182.5 205.8C182.8 205.8 183.6 205.8 184.2 205.1C184.7 204.6 184.9 203.4 184.9 203.4C184.9 203.4 185.1 202 185.1 200.6V199.3C184.9 198 184.8 196.6 184.8 196.6ZM161 200C161 191.7 167.7 185 176 185C184.3 185 191 191.7 191 200C191 208.3 184.3 215 176 215C167.7 215 161 208.3 161 200Z" fill="white"/>
<path fill-rule="evenodd" clip-rule="evenodd" d="M213.2 195.7C213.2 195.2 212.8 194.7 212.2 194.7C211.7 194.7 211.2 195.1 211.2 195.7C211.2 196.2 211.6 196.7 212.2 196.7C212.8 196.7 213.2 196.3 213.2 195.7ZM208 202.7C206.5 202.7 205.3 201.5 205.3 200C205.3 198.5 206.5 197.3 208 197.3C209.5 197.3 210.7 198.5 210.7 200C210.7 201.5 209.5 202.7 208 202.7ZM208 195.9C205.7 195.9 203.9 197.7 203.9 200C203.9 202.3 205.7 204.1 208 204.1C210.3 204.1 212.1 202.3 212.1 200C212.1 197.7 210.3 195.9 208 195.9ZM208 193.4C210.1 193.4 210.4 193.4 211.2 193.4C212 193.4 212.4 193.6 212.7 193.7C213.1 193.8 213.3 194 213.6 194.3C213.9 194.6 214.1 194.8 214.2 195.2C214.3 195.5 214.4 195.9 214.5 196.7C214.5 197.5 214.5 197.8 214.5 199.9C214.5 202 214.5 202.3 214.5 203.1C214.5 203.9 214.3 204.3 214.2 204.6C214.1 205 213.9 205.2 213.6 205.5C213.3 205.8 213.1 206 212.7 206.1C212.4 206.2 212 206.3 211.2 206.4C210.4 206.4 210.1 206.4 208 206.4C205.9 206.4 205.6 206.4 204.8 206.4C204 206.4 203.6 206.2 203.3 206.1C202.9 206 202.7 205.8 202.4 205.5C202.1 205.2 201.9 205 201.8 204.6C201.7 204.3 201.6 203.9 201.5 203.1C201.5 202.3 201.5 202 201.5 199.9C201.5 197.8 201.5 197.5 201.5 196.7C201.5 195.9 201.7 195.5 201.8 195.2C201.9 194.8 202.1 194.6 202.4 194.3C202.7 194 202.9 193.8 203.3 193.7C203.6 193.6 204 193.5 204.8 193.4C205.6 193.4 205.9 193.4 208 193.4ZM208 192C205.8 192 205.6 192 204.7 192C203.8 192 203.3 192.2 202.8 192.4C202.3 192.6 201.8 192.9 201.4 193.3C200.9 193.8 200.6 194.2 200.4 194.8C200.2 195.3 200.1 195.9 200 196.7C200 197.6 200 197.8 200 200C200 202.2 200 202.4 200 203.3C200 204.2 200.2 204.7 200.4 205.2C200.6 205.7 200.9 206.2 201.3 206.6C201.7 207 202.2 207.3 202.7 207.5C203.2 207.7 203.8 207.8 204.6 207.9C205.5 207.9 205.7 207.9 207.9 207.9C210.1 207.9 210.3 207.9 211.2 207.9C212.1 207.9 212.6 207.7 213.1 207.5C213.6 207.3 214.1 207 214.5 206.6C214.9 206.2 215.2 205.7 215.4 205.2C215.6 204.7 215.7 204.1 215.8 203.3C215.8 202.4 215.8 202.2 215.8 200C215.8 197.8 215.8 197.6 215.8 196.7C215.8 195.8 215.6 195.3 215.4 194.8C215.2 194.3 214.9 193.8 214.5 193.4C214.1 193 213.6 192.7 213.1 192.5C212.6 192.3 212 192.2 211.2 192.1C210.4 192 210.2 192 208 192ZM208 185C216.3 185 223 191.7 223 200C223 208.3 216.3 215 208 215C199.7 215 193 208.3 193 200C193 191.7 199.7 185 208 185Z" fill="white"/>
<path fill-rule="evenodd" clip-rule="evenodd" d="M240 192C235.6 192 232 195.6 232 200C232 203.3 234 206.1 236.8 207.3C236.8 206.7 236.8 206.1 236.9 205.5C237.1 204.9 237.9 201.1 237.9 201.1C237.9 201.1 237.6 200.6 237.6 199.8C237.6 198.6 238.3 197.7 239.1 197.7C239.8 197.7 240.2 198.2 240.2 198.9C240.2 199.6 239.7 200.7 239.5 201.7C239.3 202.5 239.9 203.2 240.8 203.2C242.3 203.2 243.3 201.3 243.3 198.9C243.3 197.1 242.1 195.8 240 195.8C237.6 195.8 236.1 197.6 236.1 199.6C236.1 200.3 236.3 200.8 236.6 201.2C236.7 201.4 236.8 201.4 236.7 201.6C236.7 201.7 236.6 202.1 236.5 202.2C236.4 202.4 236.3 202.5 236.1 202.4C235 201.9 234.5 200.7 234.5 199.3C234.5 197 236.4 194.3 240.2 194.3C243.3 194.3 245.3 196.5 245.3 198.9C245.3 202 243.6 204.4 241 204.4C240.1 204.4 239.3 203.9 239 203.4C239 203.4 238.5 205.2 238.4 205.6C238.2 206.2 237.9 206.8 237.6 207.3C238.3 207.5 239.1 207.6 239.9 207.6C244.3 207.6 247.9 204 247.9 199.6C248 195.6 244.4 192 240 192ZM225 200C225 191.7 231.7 185 240 185C248.3 185 255 191.7 255 200C255 208.3 248.3 215 240 215C231.7 215 225 208.3 225 200Z" fill="white"/>
<circle cx="41" cy="257" r="40" fill="#050713"/>
<path fill-rule="evenodd" clip-rule="evenodd" d="M32.9275 235.974C32.9283 235.974 32.929 235.975 32.9298 235.975L62.2023 252.672C62.2862 252.72 62.3654 252.776 62.4385 252.839C63.574 253.818 64.5 255.472 64.5 257.011C64.5 257.817 64.246 258.632 63.8775 259.309C63.5115 259.982 62.9536 260.665 62.2088 261.094C62.208 261.094 62.2073 261.095 62.2066 261.095L32.934 278.045L32.9298 278.048C32.1363 278.504 31.3437 278.501 30.9209 278.5C30.9002 278.5 30.8805 278.5 30.8616 278.5C29.798 278.5 29.0615 278.076 28.6145 277.818C28.6005 277.81 28.5868 277.802 28.5733 277.794C27.7645 277.33 27.2551 276.581 26.9547 275.89C26.6498 275.19 26.5 274.416 26.5 273.711V240.312C26.5 238.734 27.061 237.098 28.5733 236.228C29.6347 235.618 31.3595 235.074 32.9275 235.974ZM30.9416 238.511C30.6853 238.543 30.3785 238.651 30.0682 238.829C29.8195 238.972 29.5 239.36 29.5 240.312V273.711C29.5 274.018 29.5703 274.383 29.7057 274.694C29.8455 275.015 29.9965 275.152 30.0682 275.193C30.5064 275.445 30.6379 275.5 30.8616 275.5C31.3316 275.5 31.3855 275.475 31.4332 275.447C31.4338 275.447 31.4344 275.447 31.435 275.446L60.7075 258.497L60.7117 258.494C60.8463 258.417 61.058 258.215 61.242 257.876C61.4238 257.542 61.5 257.217 61.5 257.011C61.5 256.552 61.1452 255.74 60.5752 255.198L31.435 238.576C31.3383 238.521 31.1883 238.479 30.9416 238.511Z" fill="#FFE195"/>
<path fill-rule="evenodd" clip-rule="evenodd" d="M10.9253 163.246L14.7437 166.907C15.0854 167.234 15.0854 167.766 14.7437 168.093L10.9253 171.754C10.5835 172.082 10.0295 172.082 9.68782 171.754C9.34611 171.427 9.34611 170.895 9.68782 170.568L12.0126 168.339H1.83893C1.3756 168.339 1 167.963 1 167.5C1 167.037 1.3756 166.661 1.83893 166.661H12.0126L9.68782 164.432C9.34611 164.105 9.34611 163.573 9.68782 163.246C10.0295 162.918 10.5835 162.918 10.9253 163.246Z" fill="#FFE195"/>
<path fill-rule="evenodd" clip-rule="evenodd" d="M123 168C123 167.448 122.552 167 122 167C121.448 167 121 167.448 121 168V172H117C116.448 172 116 172.448 116 173C116 173.552 116.448 174 117 174H121V178C121 178.552 121.448 179 122 179C122.552 179 123 178.552 123 178V174H127C127.552 174 128 173.552 128 173C128 172.448 127.552 172 127 172H123V168Z" fill="black"/>
<path fill-rule="evenodd" clip-rule="evenodd" d="M26.4116 90.2214L33.337 92.3519L32.2551 97.0389C32.5093 97.2219 32.7552 97.4177 32.9891 97.6314L37.418 95.683L41.1124 102.015L36.8711 104.781C36.8959 105.059 36.9096 105.333 36.9172 105.597L41.4464 107.408L39.3186 114.322L34.5714 113.268C34.409 113.519 34.2294 113.756 34.0324 113.979L36.0006 118.451L29.6513 121.89L26.906 117.864C26.6194 117.89 26.3387 117.905 26.0677 117.912L24.256 122.441L17.3775 120.324L18.2773 115.646C18.0116 115.457 17.7547 115.253 17.5109 115.031L13.0437 116.996L9.59128 110.623L13.7965 107.881C13.7717 107.602 13.758 107.329 13.7504 107.065L9.22119 105.254L11.3352 98.3846L16.1495 99.2759C16.2963 99.0716 16.4572 98.871 16.6328 98.6776L14.667 94.2106L21.0163 90.7721L23.7616 94.7976C24.0482 94.7716 24.3289 94.7574 24.5999 94.7496L26.4116 90.2214ZM28.1119 93.7786L26.5669 97.6403H25.5853C24.7246 97.6403 24.0296 97.6449 23.3549 97.7798L22.4135 97.968L20.0954 94.5688L18.3977 95.4882L20.1673 99.5093L19.2463 100.2C18.7873 100.544 18.4183 101.025 18.1645 101.532L17.6765 102.508L13.3471 101.706L12.7788 103.553L16.6412 105.098V106.08C16.6412 106.94 16.6457 107.635 16.7806 108.309L16.9732 109.272L13.4146 111.592L14.321 113.266L18.3429 111.496L19.0334 112.417C19.3709 112.867 19.8553 113.254 20.6312 113.72L21.5007 114.241L20.7166 118.318L22.5557 118.883L24.1007 115.022H25.0823C25.943 115.022 26.6381 115.017 27.3127 114.882L28.2541 114.694L30.5722 118.093L32.2699 117.174L30.5003 113.153L31.4213 112.462C31.8627 112.131 32.2093 111.683 32.4537 111.072L32.9115 109.928L37.3343 110.911L37.8888 109.109L34.0265 107.564V106.582C34.0265 105.722 34.0219 105.027 33.887 104.353L33.6944 103.39L37.217 101.093L36.2172 99.3795L32.157 101.166L31.4665 100.245C31.129 99.7952 30.6447 99.4077 29.8688 98.9423L28.9647 98.4L29.9042 94.33L28.1119 93.7786ZM22.6653 101.499C23.9098 100.814 25.367 100.75 26.8218 101.165C28.283 101.583 29.481 102.416 30.1668 103.663C30.8514 104.907 30.9157 106.364 30.5001 107.819C30.0825 109.28 29.249 110.478 28.0023 111.163C26.7578 111.848 25.3006 111.912 23.8458 111.497C22.3846 111.079 21.1866 110.246 20.5009 108.999C19.8162 107.755 19.7519 106.298 20.1676 104.843C20.5851 103.382 21.4186 102.184 22.6653 101.499ZM24.0626 104.04C23.6328 104.276 23.209 104.754 22.9559 105.64C22.701 106.532 22.8043 107.17 23.0418 107.602C23.2781 108.031 23.7566 108.455 24.6424 108.708C25.5347 108.963 26.1731 108.86 26.605 108.622C27.0348 108.386 27.4586 107.907 27.7117 107.022C27.9666 106.13 27.8633 105.492 27.6259 105.06C27.3895 104.631 26.911 104.207 26.0252 103.954C25.1329 103.699 24.4945 103.802 24.0626 104.04ZM50.8752 112.025L59.1203 114.449L57.8817 120.641C58.2938 120.921 58.7283 121.246 59.1356 121.618L64.9687 119.143L69.0727 126.867L63.7823 130.217C63.8648 130.725 63.8971 131.226 63.9097 131.712L69.7754 133.844L67.3401 142.122L61.1468 140.884C60.8675 141.296 60.5421 141.73 60.1704 142.138L62.6383 147.953L55.0976 152.088L51.7375 146.783C51.2188 146.868 50.7085 146.899 50.2135 146.912L47.9071 152.765L39.662 150.341L40.9007 144.148C40.4885 143.869 40.054 143.544 39.6467 143.172L33.8298 145.639L29.6944 138.1L35 134.74C34.916 134.222 34.884 133.712 34.8719 133.217L29.017 130.911L31.4422 122.667L37.6355 123.906C37.9149 123.494 38.2402 123.059 38.6119 122.652L36.1441 116.836L43.6847 112.702L47.0448 118.006C47.5635 117.922 48.0738 117.89 48.5688 117.878L50.8752 112.025ZM52.6012 115.555L50.546 120.771H49.5588C48.343 120.771 47.5772 120.784 46.832 121.032L45.7557 121.391L42.6917 116.554L39.8383 118.118L42.1025 123.454L41.2439 124.141C40.624 124.637 40.0645 125.444 39.5697 126.269L39.044 127.145L33.4754 126.031L32.5477 129.185L37.7647 131.24V132.227C37.7647 133.443 37.7772 134.208 38.0255 134.953L38.3845 136.03L33.5467 139.093L35.1114 141.946L40.4485 139.682L41.1351 140.54C41.631 141.16 42.4389 141.719 43.2635 142.214L44.1399 142.74L43.0262 148.307L46.1811 149.235L48.2363 144.019H49.2235C50.4394 144.019 51.2051 144.006 51.9504 143.758L53.0266 143.399L56.0906 148.236L58.9441 146.672L56.6799 141.336L57.5384 140.649C58.1583 140.153 58.7178 139.345 59.2126 138.521L59.7383 137.645L65.3069 138.758L66.2246 135.639L61.0176 133.746V132.73C61.0176 131.514 61.0051 130.749 60.7568 130.004L60.3978 128.927L65.2508 125.855L63.6547 122.851L58.3338 125.108L57.6472 124.25C57.1513 123.63 56.3434 123.07 55.5188 122.576L54.6424 122.05L55.7561 116.483L52.6012 115.555ZM41.4621 129.973C42.6917 125.528 47.3582 122.882 51.8425 124.309C56.2662 125.716 58.7118 130.348 57.4936 134.629C56.2755 139.076 51.6188 141.731 47.1363 140.323C42.7008 139.096 40.0555 134.448 41.4621 129.973ZM50.9634 127.072C48.081 126.155 45.0463 127.852 44.2518 130.765L44.2438 130.794L44.2346 130.823C43.3178 133.704 45.0148 136.738 47.9285 137.533L47.9577 137.541L47.9866 137.55C50.8689 138.467 53.9036 136.77 54.6982 133.857L54.7005 133.849L54.7029 133.84C55.4908 131.083 53.9132 128.011 50.9634 127.072Z" fill="#FFE195"/>
<path d="M594.914 111.715H633.5V123.894H611.345L588.549 107L566 123.894" stroke="#FFE195" stroke-width="3" stroke-miterlimit="10" stroke-linecap="round" stroke-linejoin="round"/>
<path d="M617.71 107.393H613.862V111.764H617.71V107.393Z" stroke="#FFE195" stroke-width="3" stroke-miterlimit="10" stroke-linecap="round" stroke-linejoin="round"/>
<path d="M570.243 120.751V148.4H630.885V124.09" stroke="#FFE195" stroke-width="3" stroke-miterlimit="10" stroke-linecap="round" stroke-linejoin="round"/>
<path d="M600.934 127.921H597.776C596.099 127.921 594.717 129.296 594.717 130.966V148.4H603.993V130.917C603.993 129.247 602.612 127.921 600.934 127.921Z" stroke="#FFE195" stroke-width="3" stroke-miterlimit="10" stroke-linecap="round" stroke-linejoin="round"/>
<path d="M623.039 131.752H612.283V142.458H623.039V131.752Z" stroke="#FFE195" stroke-width="3" stroke-miterlimit="10"/>
<path d="M597.974 137.203V138.725" stroke="#FFE195" stroke-width="3" stroke-miterlimit="10"/>
<path d="M617.661 137.105V131.752" stroke="#FFE195" stroke-width="3" stroke-miterlimit="10" stroke-linecap="round" stroke-linejoin="round"/>
<path d="M612.283 137.203H623.089" stroke="#FFE195" stroke-width="3" stroke-miterlimit="10" stroke-linecap="round" stroke-linejoin="round"/>
<path d="M587.76 131.752H577.003V142.458H587.76V131.752Z" stroke="#FFE195" stroke-width="3" stroke-miterlimit="10"/>
<path d="M582.381 137.105V131.752" stroke="#FFE195" stroke-width="3" stroke-miterlimit="10" stroke-linecap="round" stroke-linejoin="round"/>
<path d="M577.003 137.203H587.809" stroke="#FFE195" stroke-width="3" stroke-miterlimit="10" stroke-linecap="round" stroke-linejoin="round"/>
<path fill-rule="evenodd" clip-rule="evenodd" d="M143 165L145 171.1H151L146.143 175L147.952 181L143 177.5L138.048 181L139.857 175L135 171.1H141.095L143 165Z" fill="#D9DBDD"/>
</svg>
