<?xml version="1.0" standalone="no"?>
<!DOCTYPE svg PUBLIC "-//W3C//DTD SVG 20010904//EN"
 "http://www.w3.org/TR/2001/REC-SVG-20010904/DTD/svg10.dtd">
<svg version="1.0" xmlns="http://www.w3.org/2000/svg"
 width="512.000000pt" height="512.000000pt" viewBox="0 0 512.000000 512.000000"
 preserveAspectRatio="xMidYMid meet">
<metadata>
Created by potrace 1.11, written by Peter Selinger 2001-2013
</metadata>
<g transform="translate(0.000000,512.000000) scale(0.100000,-0.100000)"
fill="#000000" stroke="none">
<path d="M1020 3741 c-16 -31 -12 -59 12 -75 20 -14 90 -16 561 -16 352 0 545
4 558 10 22 12 27 68 7 88 -9 9 -149 12 -570 12 -541 0 -558 -1 -568 -19z"/>
<path d="M2247 3614 c-14 -19 -16 -28 -7 -44 6 -12 10 -51 8 -88 -2 -53 -7
-72 -25 -92 -13 -14 -23 -32 -23 -41 0 -28 -119 -268 -138 -278 -18 -10 -179
10 -202 24 -18 11 -11 34 40 135 49 97 56 140 21 124 -9 -4 -45 -9 -81 -10
-88 -3 -138 -18 -169 -48 -61 -58 -120 -113 -159 -146 -26 -22 -37 -37 -29
-42 6 -3 58 -13 116 -20 90 -11 100 -14 66 -19 -30 -5 -33 -7 -12 -8 15 0 27
-6 27 -12 0 -7 -10 -9 -25 -6 -50 9 -83 -28 -162 -184 -40 -81 -75 -161 -76
-178 -1 -19 -8 -33 -19 -37 -10 -3 -29 -24 -44 -47 -14 -23 -23 -33 -19 -22
17 45 17 71 -1 86 -16 13 -16 12 -3 -8 12 -20 10 -29 -14 -79 -22 -45 -25 -59
-15 -65 17 -11 -62 1 -84 12 -9 5 -25 9 -35 8 -10 0 -4 -5 13 -10 32 -9 55
-39 30 -39 -17 0 -72 -60 -81 -89 -4 -12 -9 -20 -12 -17 -4 3 -12 -2 -20 -12
-7 -9 -2 6 12 34 37 77 30 95 -9 22 -94 -177 -110 -205 -133 -235 -30 -41 -50
-42 -159 -3 -93 33 -109 32 -36 -1 63 -29 37 -36 -34 -9 -31 11 -59 19 -61 16
-2 -2 40 -21 94 -41 99 -38 123 -55 123 -86 0 -15 -101 -203 -157 -291 -12
-21 -34 -40 -46 -43 -28 -8 -301 120 -331 154 -20 22 -20 22 7 79 l27 57 -25
-30 c-14 -16 -25 -34 -25 -38 0 -5 -5 -5 -10 -2 -7 4 -3 20 11 43 12 20 31 52
41 70 11 17 16 32 11 32 -4 0 -27 -34 -51 -76 -55 -97 -71 -104 -148 -69 -32
16 -62 30 -66 32 -5 2 -8 2 -8 -1 0 -3 24 -18 53 -33 36 -19 47 -28 34 -31
-10 -2 -41 8 -68 23 -28 14 -53 24 -56 22 -2 -3 28 -22 69 -44 51 -27 74 -44
76 -59 3 -24 -155 -298 -188 -326 -11 -9 -29 -14 -40 -11 -19 5 -20 1 -19 -98
0 -84 2 -100 12 -85 27 42 49 66 61 66 8 0 296 -182 323 -204 1 0 4 -12 7 -26
5 -19 -8 -52 -55 -135 -34 -60 -77 -139 -96 -175 -36 -67 -65 -100 -88 -100
-8 0 -48 27 -89 60 l-76 60 0 -50 c0 -27 3 -50 8 -50 4 0 31 -22 60 -49 40
-37 52 -55 52 -77 0 -16 -26 -76 -59 -137 -56 -102 -59 -112 -54 -158 3 -27 9
-52 13 -54 4 -2 35 48 70 113 81 150 96 172 124 172 21 0 206 -142 206 -159 0
-4 -69 -76 -152 -160 l-153 -152 30 -24 c50 -41 128 -75 196 -86 39 -6 386 -8
889 -7 l825 3 42 225 c23 124 39 238 37 253 -4 17 0 35 8 45 8 9 25 76 37 147
13 72 29 164 37 205 7 41 27 147 43 235 31 168 50 273 80 443 18 101 18 102 0
86 -11 -9 -19 -13 -19 -8 0 5 -4 4 -8 -1 -7 -10 -45 -30 -87 -45 -11 -4 -31
-13 -45 -19 -24 -10 -24 -10 5 -6 31 5 27 3 -35 -21 -31 -13 -33 -12 -16 1 24
18 21 18 -29 0 -22 -8 -33 -14 -25 -15 20 0 1 -16 -30 -25 -20 -5 -22 -4 -10
5 12 9 10 10 -10 8 -14 -2 -24 -9 -22 -16 2 -14 -17 -16 -38 -2 -10 6 -20 4
-31 -6 -10 -9 -36 -18 -60 -21 -39 -6 -41 -7 -23 -20 17 -14 16 -14 -13 -8
-18 3 -38 3 -45 -2 -7 -4 -35 -15 -63 -24 -44 -15 -47 -17 -20 -18 28 -2 28
-3 -13 -17 -24 -9 -51 -13 -60 -9 -8 3 -64 -11 -125 -32 -77 -26 -103 -39 -90
-44 15 -6 14 -9 -12 -19 -33 -13 -73 -15 -106 -5 -17 6 1 28 135 163 85 87
163 168 174 182 10 14 58 105 105 203 67 137 91 177 105 177 11 0 43 -10 71
-21 l52 -22 24 23 c14 13 25 26 25 30 0 4 -34 17 -75 30 -41 13 -75 27 -75 32
0 5 6 21 14 36 11 21 11 34 2 62 -9 29 -17 36 -56 45 -48 12 -50 18 -30 70 15
37 -1 84 -30 92 -11 3 -20 7 -20 9 0 13 61 122 73 133 24 19 61 16 222 -23
176 -43 202 -52 210 -76 4 -12 -19 -72 -60 -156 -36 -75 -65 -139 -65 -142 0
-14 101 96 111 121 8 20 14 24 20 16 5 -9 59 40 171 155 157 162 165 172 210
270 26 55 48 96 48 90 0 -6 -14 -42 -31 -79 -16 -37 -29 -69 -27 -71 12 -11
108 109 132 166 33 77 56 100 101 100 17 0 42 9 54 19 l23 20 -40 11 c-22 5
-43 18 -46 27 -4 10 22 81 66 181 55 125 79 167 98 177 19 10 61 12 171 8
l145 -6 27 27 26 26 -79 0 c-44 0 -80 2 -80 5 0 16 55 124 72 142 20 21 30 23
138 23 106 0 119 2 136 21 l19 21 -287 -6 c-196 -5 -288 -3 -288 4 0 6 36 10
96 10 72 0 95 3 91 13 -3 9 -36 11 -132 9 -96 -2 -130 0 -137 10 -6 10 -8 10
-8 1 0 -10 -48 -13 -204 -13 -154 0 -206 3 -209 13 -3 6 -6 -43 -6 -110 l-1
-123 -37 1 c-88 3 -88 2 -90 113 -2 54 -5 101 -8 104 -3 3 -22 5 -43 5 -20 -1
-39 2 -42 7 -3 4 -13 -3 -23 -16z m983 -78 c9 -12 6 -27 -15 -75 -15 -33 -24
-64 -20 -70 7 -13 -62 -14 -177 -5 l-76 7 26 56 c43 96 51 101 158 101 68 0
95 -4 104 -14z m-607 -133 c-7 -2 -19 -2 -25 0 -7 3 -2 5 12 5 14 0 19 -2 13
-5z m105 0 c-15 -2 -42 -2 -60 0 -18 2 -6 4 27 4 33 0 48 -2 33 -4z m-220 -45
c19 -19 15 -40 -26 -130 -81 -174 -93 -195 -115 -206 -19 -9 -16 -11 27 -11
36 -1 47 2 43 13 -3 7 12 49 32 92 20 43 50 109 66 145 41 95 50 99 218 92
193 -8 189 0 99 -200 -42 -95 -79 -165 -94 -176 -21 -16 -30 -16 -128 -3 -58
8 -139 18 -180 21 -232 19 -615 60 -590 63 13 2 98 -4 188 -13 90 -10 165 -15
168 -12 3 2 -18 7 -46 11 -48 6 -55 13 -50 46 3 24 109 242 127 262 14 15 33
18 133 18 77 0 120 -4 128 -12z m-573 -18 c3 -5 1 -10 -4 -10 -6 0 -11 5 -11
10 0 6 2 10 4 10 3 0 8 -4 11 -10z m-112 -277 c-7 -2 -19 -2 -25 0 -7 3 -2 5
12 5 14 0 19 -2 13 -5z m-13 -52 c117 -15 128 -18 135 -40 4 -13 -21 -74 -75
-180 -66 -132 -84 -162 -105 -167 -33 -8 -293 46 -318 66 -19 15 -17 21 57
167 41 84 83 157 93 163 19 11 65 9 213 -9z m430 -51 c30 -5 87 -12 125 -16
71 -6 105 -24 105 -53 0 -9 -40 -95 -88 -191 -71 -143 -92 -177 -113 -184 -20
-7 -68 0 -180 23 -179 38 -218 50 -232 72 -7 11 10 54 68 170 42 84 82 160 88
168 26 31 80 34 227 11z m296 -77 c-14 -26 -25 -45 -26 -41 0 12 43 98 48 94
2 -2 -8 -26 -22 -53z m172 25 c17 -14 15 -53 -4 -89 -11 -21 -19 -28 -27 -21
-7 5 -34 12 -60 15 -26 2 -50 7 -53 10 -3 2 4 20 15 38 12 19 21 42 21 52 0
16 6 17 48 11 26 -3 53 -11 60 -16z m-247 -181 c-10 -9 -11 -8 -5 6 3 10 9 15
12 12 3 -3 0 -11 -7 -18z m-28 -62 c-3 -9 -8 -14 -10 -11 -3 3 -2 9 2 15 9 16
15 13 8 -4z m-850 -65 c168 -40 171 -43 125 -135 -17 -36 -36 -65 -40 -65 -4
0 -63 15 -131 34 -67 19 -141 39 -164 46 -51 13 -53 23 -15 90 26 47 55 72 77
66 6 -2 72 -18 148 -36z m830 25 c-3 -9 -8 -14 -10 -11 -3 3 -2 9 2 15 9 16
15 13 8 -4z m-27 -57 c-9 -12 -16 -19 -16 -15 0 11 24 47 28 42 2 -2 -3 -14
-12 -27z m-1063 -33 c-3 -9 -8 -14 -10 -11 -3 3 -2 9 2 15 9 16 15 13 8 -4z
m998 -102 c-11 -21 -20 -35 -21 -31 0 12 33 78 38 74 2 -2 -6 -21 -17 -43z
m-951 1 c274 -80 290 -87 290 -128 -1 -12 -38 -93 -83 -181 -81 -159 -82 -160
-118 -163 -25 -2 -85 15 -195 56 -87 33 -171 66 -187 73 -47 22 -45 48 17 164
74 139 96 177 108 192 11 14 47 22 68 16 8 -3 53 -16 100 -29z m350 -163 c-23
-45 -44 -81 -46 -81 -3 0 -3 3 -1 8 2 4 21 42 42 84 22 42 41 76 43 74 2 -2
-15 -40 -38 -85z m541 32 c-12 -20 -14 -14 -5 12 4 9 9 14 11 11 3 -2 0 -13
-6 -23z m-591 -131 c0 -5 -7 -17 -15 -28 -14 -18 -14 -17 -4 9 12 27 19 34 19
19z m-63 -129 c-22 -50 -86 -168 -87 -160 0 10 89 187 95 187 2 0 -1 -12 -8
-27z m-402 -64 c209 -81 225 -91 225 -124 0 -37 -165 -362 -191 -375 -30 -16
-54 -8 -239 81 -180 87 -200 101 -200 135 0 28 154 311 182 337 11 9 25 17 32
17 6 0 93 -32 191 -71z m283 -174 c-12 -24 -23 -43 -26 -41 -4 5 36 86 43 86
3 0 -5 -20 -17 -45z m-998 -54 c157 -80 185 -102 176 -134 -8 -34 -175 -330
-193 -344 -29 -22 -51 -15 -166 60 -61 40 -126 82 -144 92 -17 10 -37 29 -44
42 -11 20 -8 29 19 73 18 28 32 53 32 55 0 8 112 190 128 208 8 9 25 17 36 17
12 0 82 -31 156 -69z m956 -33 c-18 -26 -22 -17 -5 14 6 11 13 17 16 15 3 -3
-2 -16 -11 -29z m-37 -77 c-11 -24 -22 -41 -25 -39 -2 3 5 24 17 47 11 24 22
41 25 39 2 -3 -5 -24 -17 -47z m-461 -126 c209 -106 228 -118 235 -145 9 -33
-150 -344 -201 -393 -36 -35 -42 -38 -63 -26 -62 32 -346 215 -361 233 -26 28
-22 50 26 139 131 244 152 276 184 277 8 0 89 -38 180 -85z m398 -4 c-20 -39
-38 -71 -41 -71 -3 0 12 34 32 75 20 41 39 73 41 71 2 -2 -13 -36 -32 -75z
m624 -25 c0 -2 -7 -6 -15 -10 -8 -3 -15 -1 -15 4 0 6 7 10 15 10 8 0 15 -2 15
-4z m-719 -165 c-17 -34 -33 -61 -36 -61 -3 0 10 29 27 65 18 35 34 63 36 61
2 -2 -11 -31 -27 -65z m324 19 c-3 -5 -10 -10 -16 -10 -5 0 -9 5 -9 10 0 6 7
10 16 10 8 0 12 -4 9 -10z m-275 -85 c0 -8 -4 -15 -8 -15 -5 0 -9 7 -9 15 0 8
4 15 9 15 4 0 8 -7 8 -15z m-105 -50 c-9 -20 -18 -35 -21 -32 -3 2 3 21 12 41
23 47 29 40 9 -9z m75 41 c0 -2 -8 -10 -17 -17 -16 -13 -17 -12 -4 4 13 16 21
21 21 13z m-572 -248 l184 -122 -196 -194 -196 -193 -82 63 c-121 93 -148 121
-148 152 0 29 191 383 217 404 9 6 21 12 27 12 6 0 93 -55 194 -122z"/>
<path d="M2243 3023 c9 -2 23 -2 30 0 6 3 -1 5 -18 5 -16 0 -22 -2 -12 -5z"/>
<path d="M3343 3633 c-48 -3 -63 -8 -63 -19 0 -13 19 -15 123 -13 67 1 140 5
162 8 39 6 39 6 -20 12 -33 3 -78 8 -100 11 -22 3 -68 3 -102 1z"/>
<path d="M1020 3521 c-15 -29 -12 -49 10 -71 18 -18 33 -20 163 -20 127 0 146
2 160 18 19 21 21 45 7 73 -10 18 -23 19 -170 19 -147 0 -160 -1 -170 -19z"/>
<path d="M1422 3528 c-20 -20 -14 -65 10 -82 18 -13 52 -16 160 -16 125 0 140
2 158 20 24 24 26 53 4 74 -13 13 -43 16 -168 16 -105 0 -156 -4 -164 -12z"/>
<path d="M1822 3528 c-17 -17 -15 -64 4 -82 13 -13 42 -16 160 -16 131 0 146
2 164 20 25 25 26 52 2 73 -16 14 -43 17 -168 17 -103 0 -154 -4 -162 -12z"/>
<path d="M5109 3095 c-1 -3 -3 -9 -4 -15 -1 -5 -3 -18 -5 -27 -1 -11 -3 -13
-7 -5 -6 16 -24 16 -20 0 1 -7 -8 -14 -19 -16 -12 -2 -30 -12 -39 -22 -17 -18
-17 -25 -1 -118 9 -54 16 -101 16 -104 0 -4 20 -6 45 -5 l45 2 0 43 c0 23 -3
41 -7 41 -23 -4 -53 2 -53 10 0 5 14 12 30 16 l30 7 0 99 c0 54 -2 99 -5 99
-3 0 -6 -2 -6 -5z m-29 -135 c-19 -13 -30 -13 -30 0 0 6 10 10 23 10 18 0 19
-2 7 -10z"/>
<path d="M1470 2872 c-35 -70 -74 -138 -85 -152 l-20 -25 24 20 c21 18 157
273 149 280 -2 2 -32 -54 -68 -123z"/>
<path d="M4905 2913 c-16 -9 -42 -26 -56 -38 l-27 -22 34 -15 c28 -13 36 -13
45 -2 6 7 17 10 25 7 12 -5 12 -7 -2 -17 -14 -11 -13 -13 11 -24 15 -7 29 -11
30 -10 4 6 -19 138 -25 138 -3 -1 -18 -8 -35 -17z"/>
<path d="M4746 2787 c-8 -12 -18 -39 -22 -61 l-7 -38 24 16 c18 11 33 13 54 7
l30 -8 -45 -12 c-25 -7 -50 -14 -57 -16 -12 -4 -28 -63 -19 -72 8 -8 274 44
287 56 4 3 3 16 -2 29 -6 15 -34 34 -84 57 -41 19 -78 35 -83 35 -4 0 -19 7
-35 15 -25 13 -28 12 -41 -8z"/>
<path d="M5073 2749 c-18 -5 -33 -14 -33 -19 0 -28 23 -110 31 -110 5 0 9 -5
9 -11 0 -5 -5 -7 -12 -3 -8 5 -9 2 -4 -11 12 -32 29 -164 22 -180 -10 -27 -37
-12 -51 28 -7 20 -16 63 -20 95 -6 43 -9 52 -16 37 -6 -17 -8 -17 -8 -3 -1 21
-31 13 -31 -8 0 -17 -17 -18 -23 -1 -3 9 -12 8 -38 -5 -31 -15 -32 -17 -10
-17 51 -2 7 -15 -55 -17 -44 -1 -71 -7 -82 -17 -14 -15 -13 -15 8 -10 14 4 21
2 17 -4 -4 -6 -25 -10 -47 -10 -40 0 -72 -17 -69 -37 1 -6 -3 -24 -10 -41 -16
-39 -34 -87 -77 -208 -40 -115 -133 -321 -175 -389 l-29 -47 44 -248 c77 -431
81 -463 70 -480 -13 -20 -25 -25 -41 -15 -6 4 -21 61 -33 127 -13 66 -32 171
-44 233 l-21 114 -74 32 c-71 31 -76 32 -105 17 -17 -8 -55 -17 -86 -19 -48
-4 -61 -10 -101 -47 -34 -32 -56 -44 -90 -49 -143 -20 -161 -18 -292 41 -43
19 -81 33 -83 30 -3 -2 -25 -102 -49 -221 -50 -246 -60 -270 -100 -230 -10 10
-14 25 -11 38 3 12 22 107 41 211 19 105 38 200 40 213 5 21 3 23 -27 20 -26
-2 -39 -13 -73 -63 -36 -53 -45 -60 -77 -63 -33 -3 -44 3 -87 43 -62 58 -77
97 -58 152 21 62 74 130 130 168 l52 35 -153 0 c-124 0 -152 -3 -152 -14 0
-22 151 -913 191 -1131 12 -60 25 -115 30 -121 5 -6 8 -29 8 -50 -1 -21 15
-139 36 -262 l39 -223 755 3 756 3 55 23 c112 46 187 122 234 236 21 51 21 59
24 1274 1 672 -1 1222 -5 1221 -5 0 -23 -5 -40 -10z"/>
<path d="M4629 2697 c-15 -12 -72 -60 -127 -105 -95 -79 -101 -87 -108 -129
-7 -48 -29 -67 -49 -40 -7 9 -15 14 -18 10 -11 -11 14 -33 37 -33 13 0 66 37
130 92 60 51 116 93 124 93 16 0 44 84 39 117 -2 15 -5 14 -28 -5z"/>
<path d="M1298 2703 c7 -3 16 -2 19 1 4 3 -2 6 -13 5 -11 0 -14 -3 -6 -6z"/>
<path d="M1338 2693 c7 -3 16 -2 19 1 4 3 -2 6 -13 5 -11 0 -14 -3 -6 -6z"/>
<path d="M4475 2406 c-11 -7 -24 -15 -30 -16 -25 -6 -41 -12 -58 -21 -10 -5
-22 -7 -27 -4 -6 4 -10 -3 -10 -13 0 -11 -9 -22 -19 -25 -12 -3 -18 0 -15 7 2
6 -4 12 -15 13 -17 1 -18 -4 -15 -58 2 -33 7 -66 11 -72 4 -6 8 -28 9 -47 2
-33 38 -265 50 -320 6 -24 6 -24 26 14 25 48 112 259 142 346 20 57 56 187 56
204 0 12 -86 6 -105 -8z"/>
<path d="M4165 2310 c-16 -7 -17 -9 -3 -9 9 -1 18 -7 21 -13 3 -7 4 -3 4 10
-1 12 -1 22 -2 21 0 0 -9 -4 -20 -9z"/>
<path d="M4030 2245 c12 -14 7 -20 -15 -15 -12 2 -91 -19 -127 -34 -15 -6 -27
-17 -25 -25 1 -8 -4 -16 -12 -19 -9 -3 -11 0 -6 8 6 10 4 12 -7 7 -9 -3 -20
-1 -26 5 -6 6 -12 6 -16 -1 -4 -6 3 -15 16 -20 13 -5 44 -18 70 -30 l47 -20
108 45 c59 25 109 47 111 49 6 6 -80 45 -88 40 -4 -3 -10 2 -14 10 -3 8 -11
15 -17 15 -8 0 -8 -4 1 -15z"/>
<path d="M4195 2122 c-6 -5 -40 -21 -77 -36 -38 -16 -68 -31 -68 -35 0 -6 188
-91 201 -91 9 0 -26 163 -37 167 -5 2 -14 0 -19 -5z"/>
<path d="M448 2088 c-8 -13 -20 -34 -27 -48 -12 -24 -11 -24 4 -5 19 23 48 75
41 75 -2 0 -10 -10 -18 -22z"/>
<path d="M3655 2100 c-4 -6 -10 -8 -14 -5 -5 2 -13 -17 -18 -44 -9 -46 -9 -48
17 -58 21 -8 37 -5 86 18 32 15 65 28 72 28 22 1 13 18 -15 30 -74 29 -89 34
-105 37 -9 2 -20 -1 -23 -6z"/>
<path d="M3505 2050 c3 -5 11 -10 16 -10 6 0 7 5 4 10 -3 6 -11 10 -16 10 -6
0 -7 -4 -4 -10z"/>
<path d="M3326 1985 c6 -15 -12 -29 -20 -16 -4 5 -20 5 -42 -2 -30 -9 -33 -12
-18 -18 16 -7 15 -8 -6 -9 -14 -1 -34 -2 -45 -1 -12 1 -32 -3 -45 -8 -18 -7
26 -10 152 -10 97 -1 185 -4 195 -7 12 -5 15 -4 8 4 -17 18 -184 81 -179 67z"/>
<path d="M3850 1969 l-65 -31 59 -23 c33 -12 65 -30 73 -41 15 -20 8 -55 -14
-67 -7 -5 -11 -12 -8 -18 3 -5 19 1 35 12 22 17 36 20 63 15 27 -5 51 2 118
32 l84 39 -45 20 c-127 58 -212 93 -223 93 -7 -1 -41 -15 -77 -31z"/>
<path d="M67 1969 c7 -7 15 -10 18 -7 3 3 -2 9 -12 12 -14 6 -15 5 -6 -5z"/>
<path d="M4185 1790 c-44 -22 -84 -40 -88 -42 -5 -2 -5 -16 -2 -31 5 -20 21
-33 60 -52 30 -14 58 -25 64 -25 5 0 26 20 46 44 34 42 35 47 28 92 -5 26 -13
49 -18 50 -6 1 -46 -15 -90 -36z"/>
<path d="M2762 1792 c-16 -2 -22 -8 -18 -18 8 -21 -24 -31 -35 -11 -9 15 -12
14 -42 -2 -17 -10 -54 -24 -82 -31 -59 -15 -80 -30 -44 -31 l24 0 -24 -10
c-18 -7 -27 -6 -33 3 -4 7 -8 11 -9 8 -2 -11 -8 -43 -53 -260 -26 -124 -58
-275 -70 -337 l-24 -112 157 -83 c85 -46 158 -84 162 -86 3 -1 78 36 165 83
87 47 162 85 166 85 10 0 14 -22 -31 216 -65 342 -81 427 -91 464 -5 19 -12
56 -15 82 -7 47 -7 48 -44 46 -20 -1 -46 -4 -59 -6z"/>
<path d="M3570 1793 c1 -9 180 -93 199 -93 7 0 22 5 33 11 18 10 11 15 -67 50
-80 36 -166 52 -165 32z"/>
<path d="M3357 1716 c-60 -16 -113 -59 -146 -117 l-25 -45 30 -37 c16 -20 31
-37 34 -37 3 0 18 22 34 50 61 102 143 107 321 20 98 -48 118 -54 187 -58 70
-4 82 -1 122 22 43 25 90 76 116 125 11 21 9 27 -23 58 l-34 35 -22 -35 c-12
-20 -38 -49 -57 -66 -52 -46 -108 -43 -226 12 -160 75 -235 93 -311 73z"/>
<path d="M4285 1640 c-20 -22 -20 -22 12 -39 30 -15 30 -15 25 19 -6 39 -15
44 -37 20z"/>
<path d="M4080 1585 c0 -9 9 -15 25 -15 28 0 34 15 9 24 -25 10 -34 7 -34 -9z"/>
<path d="M2330 877 c0 -3 -11 -60 -25 -127 -14 -67 -24 -126 -23 -131 2 -4 65
25 142 65 l138 73 -83 45 c-113 61 -149 79 -149 75z"/>
<path d="M2908 822 c-59 -31 -107 -61 -105 -65 1 -5 64 -41 140 -82 103 -55
137 -69 137 -56 -2 42 -47 255 -55 257 -6 2 -58 -22 -117 -54z"/>
<path d="M2631 675 c-23 -13 -94 -52 -159 -86 -64 -34 -123 -67 -130 -73 -9
-9 15 -24 110 -66 68 -29 145 -64 172 -76 34 -15 57 -19 70 -14 12 5 92 40
179 78 l158 69 -158 85 c-87 47 -167 90 -179 96 -16 9 -29 6 -63 -13z"/>
<path d="M2235 407 c-18 -75 -53 -263 -50 -266 4 -3 53 18 299 127 l60 26 -40
17 c-21 10 -90 40 -151 68 -110 49 -113 49 -118 28z"/>
<path d="M2965 364 c-82 -36 -151 -67 -153 -68 -1 -2 77 -38 174 -80 97 -43
178 -76 180 -74 2 3 -9 68 -24 146 l-27 141 -150 -65z"/>
<path d="M2465 144 l-209 -92 58 -26 58 -26 303 0 303 0 58 26 59 27 -40 17
c-22 10 -117 51 -210 92 l-170 75 -210 -93z"/>
</g>
</svg>
