<svg width="75" height="80" viewBox="0 0 75 80" fill="none" xmlns="http://www.w3.org/2000/svg">
<path d="M37.037 11.8519C23.1496 11.8519 11.8518 23.1496 11.8518 37.037C11.8518 47.5733 18.357 56.9067 28.1481 60.5926V74.0741C28.1481 74.8933 28.8103 75.5556 29.6296 75.5556H31.1111V78.5185C31.1111 79.3378 31.7733 80 32.5925 80H41.4814C42.3007 80 42.9629 79.3378 42.9629 78.5185V75.5556H44.4444C45.2637 75.5556 45.9259 74.8933 45.9259 74.0741V60.5926C55.717 56.9067 62.2222 47.5733 62.2222 37.037C62.2222 23.1496 50.9244 11.8519 37.037 11.8519ZM41.4814 72.5926C40.6622 72.5926 40 73.2548 40 74.0741V77.037H34.074V74.0741C34.074 73.2548 33.4118 72.5926 32.5925 72.5926H31.1111V65.1852H42.9629V72.5926H41.4814ZM43.9822 58.1363C43.3733 58.3363 42.9629 58.9052 42.9629 59.5437V62.2222H31.1111V59.5437C31.1111 58.9037 30.7007 58.3363 30.0918 58.1363C20.9555 55.1319 14.8148 46.6519 14.8148 37.037C14.8148 24.7837 24.7837 14.8148 37.037 14.8148C49.2903 14.8148 59.2592 24.7837 59.2592 37.037C59.2592 46.6519 53.1185 55.1319 43.9822 58.1363Z" fill="black"/>
<path d="M37.0371 8.88889C37.8564 8.88889 38.5186 8.22667 38.5186 7.40741V1.48148C38.5186 0.662222 37.8564 0 37.0371 0C36.2179 0 35.5557 0.662222 35.5557 1.48148V7.40741C35.5557 8.22667 36.2179 8.88889 37.0371 8.88889Z" fill="black"/>
<path d="M72.5925 35.5556H66.6665C65.8473 35.5556 65.1851 36.2178 65.1851 37.037C65.1851 37.8563 65.8473 38.5185 66.6665 38.5185H72.5925C73.4117 38.5185 74.074 37.8563 74.074 37.037C74.074 36.2178 73.4117 35.5556 72.5925 35.5556Z" fill="black"/>
<path d="M7.40741 35.5556H1.48148C0.662222 35.5556 0 36.2178 0 37.037C0 37.8563 0.662222 38.5185 1.48148 38.5185H7.40741C8.22667 38.5185 8.88889 37.8563 8.88889 37.037C8.88889 36.2178 8.22667 35.5556 7.40741 35.5556Z" fill="black"/>
<path d="M61.1319 10.8474L56.9423 15.037C56.363 15.6163 56.363 16.5526 56.9423 17.1319C57.2311 17.4207 57.6104 17.5659 57.9897 17.5659C58.3689 17.5659 58.7482 17.4207 59.0371 17.1319L63.2267 12.9422C63.806 12.363 63.806 11.4267 63.2267 10.8474C62.6474 10.2682 61.7097 10.2696 61.1319 10.8474Z" fill="black"/>
<path d="M15.0372 56.9422L10.8475 61.1319C10.2683 61.7111 10.2683 62.6474 10.8475 63.2267C11.1364 63.5156 11.5157 63.6607 11.8949 63.6607C12.2742 63.6607 12.6535 63.5156 12.9423 63.2267L17.132 59.037C17.7112 58.4578 17.7112 57.5215 17.132 56.9422C16.5527 56.363 15.6164 56.363 15.0372 56.9422Z" fill="black"/>
<path d="M59.0371 56.9422C58.4578 56.363 57.5215 56.363 56.9423 56.9422C56.363 57.5215 56.363 58.4578 56.9423 59.037L61.1319 63.2267C61.4208 63.5156 61.8 63.6607 62.1793 63.6607C62.5585 63.6607 62.9378 63.5156 63.2267 63.2267C63.806 62.6474 63.806 61.7111 63.2267 61.1319L59.0371 56.9422Z" fill="black"/>
<path d="M15.0372 17.1319C15.326 17.4207 15.7053 17.5659 16.0846 17.5659C16.4638 17.5659 16.8431 17.4207 17.132 17.1319C17.7112 16.5526 17.7112 15.6163 17.132 15.037L12.9423 10.8474C12.3631 10.2681 11.4268 10.2681 10.8475 10.8474C10.2683 11.4267 10.2683 12.363 10.8475 12.9422L15.0372 17.1319Z" fill="black"/>
<path d="M37.0371 19.2593C27.2341 19.2593 19.2593 27.2341 19.2593 37.037C19.2593 37.8563 19.9215 38.5185 20.7408 38.5185C21.56 38.5185 22.2222 37.8563 22.2222 37.037C22.2222 28.8682 28.8682 22.2222 37.0371 22.2222C37.8563 22.2222 38.5185 21.56 38.5185 20.7407C38.5185 19.9215 37.8563 19.2593 37.0371 19.2593Z" fill="black"/>
</svg>
