<?xml version="1.0" encoding="utf-8"?>
<!-- Generator: Adobe Illustrator 23.0.3, SVG Export Plug-In . SVG Version: 6.00 Build 0)  -->
<svg version="1.1" id="Слой_1" xmlns="http://www.w3.org/2000/svg" xmlns:xlink="http://www.w3.org/1999/xlink" x="0px" y="0px"
	 viewBox="0 0 75 80" style="enable-background:new 0 0 75 80;" xml:space="preserve">
<style type="text/css">
	.st0{fill:#A4C2F7;}
	.st1{fill:url(#SVGID_1_);}
	.st2{fill:#FFFFFF;}
	.st3{fill:#E3E7F2;}
	.st4{fill:#428DFF;}
</style>
<g>
	<path class="st0" d="M37.5,13.3c-11.8,0-21.8,8.5-23.7,19.9c-1.9,11.5,5,22.6,16.2,26.3v14.5h3v4.4h9v-4.4h3V59.5
		c11.2-3.6,18.1-14.8,16.2-26.3C59.3,21.8,49.3,13.3,37.5,13.3z"/>
	
		<linearGradient id="SVGID_1_" gradientUnits="userSpaceOnUse" x1="12.0889" y1="92.5508" x2="57.3562" y2="72.8195" gradientTransform="matrix(1 0 0 -1 0 128)">
		<stop  offset="0" style="stop-color:#D4E1F4"/>
		<stop  offset="0.1717" style="stop-color:#D4E1F4"/>
		<stop  offset="0.2" style="stop-color:#D4E1F4"/>
		<stop  offset="0.2001" style="stop-color:#DAE4F4"/>
		<stop  offset="0.2007" style="stop-color:#EBEBF4"/>
		<stop  offset="0.2014" style="stop-color:#F6F1F4"/>
		<stop  offset="0.2023" style="stop-color:#FDF4F4"/>
		<stop  offset="0.205" style="stop-color:#FFF5F4"/>
		<stop  offset="0.2522" style="stop-color:#FFF5F4"/>
		<stop  offset="0.26" style="stop-color:#D4E1F4"/>
		<stop  offset="0.3974" style="stop-color:#D4E1F4"/>
		<stop  offset="0.42" style="stop-color:#D4E1F4"/>
		<stop  offset="0.4201" style="stop-color:#DAE4F4"/>
		<stop  offset="0.4207" style="stop-color:#EBEBF4"/>
		<stop  offset="0.4214" style="stop-color:#F6F1F4"/>
		<stop  offset="0.4223" style="stop-color:#FDF4F4"/>
		<stop  offset="0.425" style="stop-color:#FFF5F4"/>
		<stop  offset="0.4894" style="stop-color:#FFF5F4"/>
		<stop  offset="0.5" style="stop-color:#F9F2F4"/>
		<stop  offset="0.5001" style="stop-color:#E8EBF4"/>
		<stop  offset="0.5003" style="stop-color:#DDE5F4"/>
		<stop  offset="0.5005" style="stop-color:#D6E2F4"/>
		<stop  offset="0.501" style="stop-color:#D4E1F4"/>
		<stop  offset="0.7062" style="stop-color:#D4E1F4"/>
		<stop  offset="0.74" style="stop-color:#D4E1F4"/>
		<stop  offset="0.741" style="stop-color:#FFF5F4"/>
		<stop  offset="0.8346" style="stop-color:#FFF5F4"/>
		<stop  offset="0.85" style="stop-color:#FFF5F4"/>
		<stop  offset="0.851" style="stop-color:#D4E1F4"/>
	</linearGradient>
	<path class="st1" d="M33,13.3c-0.1,0-0.2,0-0.3,0c-0.1,0.2-0.2,0.4-0.3,0.5c-1,1-2.3,1.7-3.7,1.8c-1.3,0.1-2.5,0.4-3.7,1
		c0.1,0.5-0.1,1-0.5,1.3c-2.5,1.9-5.3,3.9-6.9,6.7c-0.2,0.4-0.6,0.7-1.1,0.8c0.4,0.5,0.4,1.1,0.1,1.7c-0.7,1.8-1.8,3.4-3.2,4.7
		c0.3,1.8,0.5,3.6,0.6,5.4c0,0.3,0,0.8,0,1.3c1.5,3.4,2.4,6.9,2.8,10.6c1.6,1.9,3.3,3.8,5.1,5.6c1.2,0.8,2.4,1.8,3.4,2.8
		c1.7,0.6,3,1.8,3.9,3.4c0.7,1.8,0.7,3.8,0.2,5.6c0.7,0.3,1.2,1.1,1,1.8c-0.3,1.5-0.6,2.9-0.8,4.4c0,0.4-0.1,1-0.2,1.6
		c0.1,0,0.1,0,0.2,0c2.4-0.1,3.8,2.3,4.7,4.2h3.3v-4.4h3V59.5c11.2-3.6,18.1-14.8,16.2-26.3C54.8,21.8,44.8,13.3,33,13.3z"/>
	<path class="st2" d="M37.5,13.3c0.8,0,1.5,0,2.3,0.1c-11.3,1-20.3,9.8-21.6,20.9C16.9,45.5,23.7,56,34.5,59.5v14.5h3v4.4H33v-4.4
		h-3V59.5c-11.2-3.6-18.1-14.8-16.2-26.3C15.7,21.8,25.7,13.3,37.5,13.3z"/>
	<path class="st3" d="M40.5,63.7h-6v14.8h6V63.7z"/>
	<path class="st0" d="M45,63.7h-4.5v10.4H45V63.7z"/>
	<path class="st2" d="M34.5,63.7H30v10.4h4.5V63.7z"/>
	<path class="st4" d="M37.5,8.9c-0.4,0-0.8-0.2-1.1-0.4c-0.3-0.3-0.4-0.7-0.4-1V1.5C36,0.7,36.7,0,37.5,0C38.3,0,39,0.7,39,1.5v5.9
		c0,0.4-0.2,0.8-0.4,1C38.3,8.7,37.9,8.9,37.5,8.9z"/>
	<path class="st4" d="M73.5,38.5h-6c-0.8,0-1.5-0.7-1.5-1.5c0-0.8,0.7-1.5,1.5-1.5h6c0.8,0,1.5,0.7,1.5,1.5
		C75,37.9,74.3,38.5,73.5,38.5z"/>
	<path class="st4" d="M7.5,38.5h-6C0.7,38.5,0,37.9,0,37c0-0.8,0.7-1.5,1.5-1.5h6C8.3,35.6,9,36.2,9,37C9,37.9,8.3,38.5,7.5,38.5z"
		/>
	<path class="st4" d="M58.7,17.6c-0.6,0-1.2-0.4-1.4-0.9c-0.2-0.6-0.1-1.2,0.3-1.6l4.2-4.2c0.6-0.6,1.5-0.6,2.1,0
		c0.6,0.6,0.6,1.5,0,2.1l-4.2,4.2C59.5,17.4,59.1,17.6,58.7,17.6z"/>
	<path class="st4" d="M12,63.7c-0.6,0-1.2-0.4-1.4-0.9c-0.2-0.6-0.1-1.2,0.3-1.6l4.2-4.2c0.4-0.4,0.9-0.5,1.4-0.4
		c0.5,0.1,0.9,0.5,1.1,1c0.1,0.5,0,1.1-0.4,1.4l-4.2,4.2C12.8,63.5,12.4,63.7,12,63.7z"/>
	<path class="st4" d="M63,63.7c-0.4,0-0.8-0.2-1.1-0.4L57.7,59c-0.6-0.6-0.6-1.5,0-2.1c0.6-0.6,1.5-0.6,2.1,0l4.2,4.2
		c0.4,0.4,0.6,1.1,0.3,1.6C64.1,63.3,63.6,63.7,63,63.7z"/>
	<path class="st4" d="M16.3,17.6c-0.4,0-0.8-0.2-1.1-0.4L11,12.9c-0.4-0.4-0.5-0.9-0.4-1.4c0.1-0.5,0.5-0.9,1.1-1
		c0.5-0.1,1.1,0,1.4,0.4l4.2,4.2c0.4,0.4,0.6,1.1,0.3,1.6C17.4,17.2,16.9,17.6,16.3,17.6z"/>
	<path class="st4" d="M42,80h-9c-0.4,0-0.8-0.2-1.1-0.4c-0.3-0.3-0.4-0.7-0.4-1v-3H30c-0.4,0-0.8-0.2-1.1-0.4
		c-0.3-0.3-0.4-0.7-0.4-1V60.6C17,56.3,10.2,44.5,12.4,32.5c2.2-12,12.8-20.7,25.1-20.7c12.3,0,22.9,8.7,25.1,20.7
		c2.2,12-4.6,23.8-16.1,28.1v13.5c0,0.4-0.2,0.8-0.4,1c-0.3,0.3-0.7,0.4-1.1,0.4h-1.5v3c0,0.4-0.2,0.8-0.4,1
		C42.8,79.8,42.4,80,42,80z M34.5,77h6v-3c0-0.4,0.2-0.8,0.4-1c0.3-0.3,0.7-0.4,1.1-0.4h1.5v-13c0-0.6,0.4-1.2,1-1.4
		C55,54.7,61.5,44.3,59.7,33.5C58,22.7,48.6,14.8,37.5,14.8c-11.1,0-20.5,7.9-22.2,18.7C13.5,44.3,20,54.7,30.5,58.1
		c0.6,0.2,1,0.8,1,1.4v13H33c0.4,0,0.8,0.2,1.1,0.4c0.3,0.3,0.4,0.7,0.4,1V77z"/>
	<path class="st4" d="M45,65.2H30c-0.8,0-1.5-0.7-1.5-1.5c0-0.8,0.7-1.5,1.5-1.5h15c0.8,0,1.5,0.7,1.5,1.5
		C46.5,64.5,45.8,65.2,45,65.2z"/>
	<path class="st4" d="M21,38.5c-0.4,0-0.8-0.2-1.1-0.4c-0.3-0.3-0.4-0.7-0.4-1c0-9.8,8.1-17.8,18-17.8c0.8,0,1.5,0.7,1.5,1.5
		c0,0.8-0.7,1.5-1.5,1.5c-8.3,0-15,6.6-15,14.8c0,0.4-0.2,0.8-0.4,1C21.8,38.4,21.4,38.5,21,38.5z"/>
</g>
</svg>
