<svg width="80" height="80" viewBox="0 0 80 80" fill="none" xmlns="http://www.w3.org/2000/svg">
<path d="M40.0001 13.5849C26.6612 13.5849 15.8491 24.3985 15.8491 37.7358C15.8491 48.4362 22.8152 57.4958 32.4529 60.6672V75.4717H35.4718V80H44.5284V75.4717H47.5472V60.6672C57.185 57.4958 64.151 48.4362 64.151 37.7358C64.151 24.3985 53.3389 13.5849 40.0001 13.5849Z" fill="#EFCE4A"/>
<path d="M39.9999 0C39.1652 0 38.4905 0.674717 38.4905 1.50943V7.54717C38.4905 8.38189 39.1652 9.0566 39.9999 9.0566C40.8346 9.0566 41.5093 8.38189 41.5093 7.54717V1.50943C41.5093 0.674717 40.8346 0 39.9999 0Z" fill="#EFCE4A"/>
<path d="M76.2264 36.2264H70.1886C69.3539 36.2264 68.6792 36.9011 68.6792 37.7358C68.6792 38.5706 69.3539 39.2453 70.1886 39.2453H76.2264C77.0611 39.2453 77.7358 38.5706 77.7358 37.7358C77.7358 36.9011 77.0611 36.2264 76.2264 36.2264Z" fill="#EFCE4A"/>
<path d="M9.81133 36.2264H3.77359C2.93888 36.2264 2.26416 36.9011 2.26416 37.7358C2.26416 38.5706 2.93888 39.2453 3.77359 39.2453H9.81133C10.646 39.2453 11.3208 38.5706 11.3208 37.7358C11.3208 36.9011 10.646 36.2264 9.81133 36.2264Z" fill="#EFCE4A"/>
<path d="M64.5495 11.0521L60.2808 15.3208C59.6906 15.9109 59.6906 16.8649 60.2808 17.4551C60.5751 17.7494 60.9615 17.8974 61.3479 17.8974C61.7344 17.8974 62.1208 17.7494 62.4151 17.4551L66.6838 13.1864C67.274 12.5962 67.274 11.6423 66.6838 11.0521C66.0936 10.4619 65.1381 10.4634 64.5495 11.0521Z" fill="#EFCE4A"/>
<path d="M17.5849 58.0166L13.3162 62.2853C12.726 62.8755 12.726 63.8294 13.3162 64.4196C13.6105 64.714 13.9969 64.8619 14.3833 64.8619C14.7698 64.8619 15.1562 64.714 15.4505 64.4196L19.7192 60.1509C20.3094 59.5607 20.3094 58.6068 19.7192 58.0166C19.129 57.4264 18.175 57.4264 17.5849 58.0166Z" fill="#EFCE4A"/>
<path d="M62.4151 58.0166C61.8249 57.4264 60.871 57.4264 60.2808 58.0166C59.6906 58.6068 59.6906 59.5607 60.2808 60.1509L64.5495 64.4196C64.8438 64.714 65.2302 64.8619 65.6166 64.8619C66.003 64.8619 66.3895 64.714 66.6838 64.4196C67.274 63.8294 67.274 62.8755 66.6838 62.2853L62.4151 58.0166Z" fill="#EFCE4A"/>
<path d="M15.4505 11.0521C14.8603 10.4619 13.9064 10.4619 13.3162 11.0521C12.726 11.6423 12.726 12.5962 13.3162 13.1864L17.5849 17.4551C17.8792 17.7494 18.2656 17.8974 18.652 17.8974C19.0384 17.8974 19.4249 17.7494 19.7192 17.4551C20.3094 16.8649 20.3094 15.9109 19.7192 15.3208L15.4505 11.0521Z" fill="#EFCE4A"/>
<path d="M23.3962 39.2453C22.5614 39.2453 21.8867 38.5706 21.8867 37.7358C21.8867 27.7479 30.012 19.6226 39.9999 19.6226C40.8346 19.6226 41.5094 20.2974 41.5094 21.1321C41.5094 21.9668 40.8346 22.6415 39.9999 22.6415C31.6769 22.6415 24.9056 29.4128 24.9056 37.7358C24.9056 38.5706 24.2309 39.2453 23.3962 39.2453Z" fill="#F7E6A1"/>
<path d="M32.4529 64.9057V75.4717H35.4717V80H44.5284V75.4717H47.5472V64.9057H32.4529Z" fill="#556080"/>
</svg>
